<svg width="80" height="82" viewBox="0 0 80 82" fill="none" xmlns="http://www.w3.org/2000/svg" xmlns:xlink="http://www.w3.org/1999/xlink">
<path d="M28.974,36L17.693,36C16.009,36 14.583,35.417 13.417,34.25C12.25,33.083 11.667,31.658 11.667,29.974L11.667,18.692C11.667,17.009 12.25,15.583 13.417,14.417C14.583,13.25 16.009,12.667 17.693,12.667L28.974,12.667C30.658,12.667 32.083,13.25 33.25,14.417C34.417,15.583 35,17.009 35,18.692L35,29.974C35,31.658 34.417,33.083 33.25,34.25C32.083,35.417 30.658,36 28.974,36ZM17.693,31L28.974,31C29.274,31 29.52,30.904 29.712,30.712C29.904,30.519 30,30.274 30,29.974L30,18.692C30,18.393 29.904,18.147 29.712,17.955C29.52,17.763 29.274,17.667 28.974,17.667L17.693,17.667C17.393,17.667 17.147,17.763 16.955,17.955C16.763,18.147 16.667,18.393 16.667,18.692L16.667,29.974C16.667,30.274 16.763,30.519 16.955,30.712C17.147,30.904 17.393,31 17.693,31ZM28.974,69.333L17.693,69.333C16.009,69.333 14.583,68.75 13.417,67.583C12.25,66.417 11.667,64.991 11.667,63.307L11.667,52.026C11.667,50.342 12.25,48.917 13.417,47.75C14.583,46.583 16.009,46 17.693,46L28.974,46C30.658,46 32.083,46.583 33.25,47.75C34.417,48.917 35,50.342 35,52.026L35,63.307C35,64.991 34.417,66.417 33.25,67.583C32.083,68.75 30.658,69.333 28.974,69.333ZM17.693,64.333L28.974,64.333C29.274,64.333 29.52,64.237 29.712,64.045C29.904,63.853 30,63.607 30,63.307L30,52.026C30,51.726 29.904,51.48 29.712,51.288C29.52,51.096 29.274,51 28.974,51L17.693,51C17.393,51 17.147,51.096 16.955,51.288C16.763,51.48 16.667,51.726 16.667,52.026L16.667,63.307C16.667,63.607 16.763,63.853 16.955,64.045C17.147,64.237 17.393,64.333 17.693,64.333ZM62.308,36L51.026,36C49.342,36 47.917,35.417 46.75,34.25C45.583,33.083 45,31.658 45,29.974L45,18.692C45,17.009 45.583,15.583 46.75,14.417C47.917,13.25 49.342,12.667 51.026,12.667L62.308,12.667C63.992,12.667 65.417,13.25 66.583,14.417C67.75,15.583 68.333,17.009 68.333,18.692L68.333,29.974C68.333,31.658 67.75,33.083 66.583,34.25C65.417,35.417 63.992,36 62.308,36ZM51.026,31L62.308,31C62.607,31 62.853,30.904 63.045,30.712C63.237,30.519 63.333,30.274 63.333,29.974L63.333,18.692C63.333,18.393 63.237,18.147 63.045,17.955C62.853,17.763 62.607,17.667 62.308,17.667L51.026,17.667C50.727,17.667 50.481,17.763 50.288,17.955C50.096,18.147 50,18.393 50,18.692L50,29.974C50,30.274 50.096,30.519 50.288,30.712C50.481,30.904 50.727,31 51.026,31ZM62.308,69.333L51.026,69.333C49.342,69.333 47.917,68.75 46.75,67.583C45.583,66.417 45,64.991 45,63.307L45,52.026C45,50.342 45.583,48.917 46.75,47.75C47.917,46.583 49.342,46 51.026,46L62.308,46C63.992,46 65.417,46.583 66.583,47.75C67.75,48.917 68.333,50.342 68.333,52.026L68.333,63.307C68.333,64.991 67.75,66.417 66.583,67.583C65.417,68.75 63.992,69.333 62.308,69.333ZM51.026,64.333L62.308,64.333C62.607,64.333 62.853,64.237 63.045,64.045C63.237,63.853 63.333,63.607 63.333,63.307L63.333,52.026C63.333,51.726 63.237,51.48 63.045,51.288C62.853,51.096 62.607,51 62.308,51L51.026,51C50.727,51 50.481,51.096 50.288,51.288C50.096,51.48 50,51.726 50,52.026L50,63.307C50,63.607 50.096,63.853 50.288,64.045C50.481,64.237 50.727,64.333 51.026,64.333Z" fill="#000000"/>
<path d="M16.583,49.974C15.896,49.974 15.321,49.734 14.859,49.255C14.398,48.775 14.167,48.182 14.167,47.473C14.167,46.764 14.406,46.171 14.886,45.692C15.365,45.214 15.958,44.974 16.667,44.974L63.417,44.974C64.105,44.974 64.679,45.214 65.141,45.693C65.603,46.173 65.833,46.767 65.833,47.476C65.833,48.184 65.594,48.778 65.114,49.257C64.635,49.735 64.042,49.974 63.333,49.974L16.583,49.974ZM16.583,62.923C15.896,62.923 15.321,62.684 14.859,62.204C14.398,61.725 14.167,61.13 14.167,60.422C14.167,59.713 14.406,59.12 14.886,58.641C15.365,58.162 15.958,57.923 16.667,57.923L63.417,57.923C64.105,57.923 64.679,58.163 65.141,58.642C65.603,59.121 65.833,59.715 65.833,60.424C65.833,61.133 65.594,61.727 65.114,62.205C64.635,62.684 64.042,62.923 63.333,62.923L16.583,62.923ZM16.583,37.026C15.896,37.026 15.321,36.786 14.859,36.307C14.398,35.827 14.167,35.233 14.167,34.524C14.167,33.816 14.406,33.222 14.886,32.743C15.365,32.265 15.958,32.026 16.667,32.026L63.417,32.026C64.105,32.026 64.679,32.266 65.141,32.745C65.603,33.224 65.833,33.818 65.833,34.527C65.833,35.236 65.594,35.829 65.114,36.308C64.635,36.786 64.042,37.026 63.333,37.026L16.583,37.026ZM16.583,24.077C15.896,24.077 15.321,23.837 14.859,23.358C14.398,22.879 14.167,22.285 14.167,21.576C14.167,20.867 14.406,20.273 14.886,19.795C15.365,19.316 15.958,19.077 16.667,19.077L63.417,19.077C64.105,19.077 64.679,19.316 65.141,19.796C65.603,20.275 65.833,20.869 65.833,21.578C65.833,22.287 65.594,22.88 65.114,23.359C64.635,23.838 64.042,24.077 63.333,24.077L16.583,24.077Z" fill="#000000"/>
</svg>
