<svg width="68" height="66" viewBox="0 0 68 66" fill="none" xmlns="http://www.w3.org/2000/svg" xmlns:xlink="http://www.w3.org/1999/xlink">
<path d="M33.017,6.875C26.088,6.875 19.443,9.627 14.543,14.527C9.644,19.426 6.892,26.071 6.892,33C6.892,39.929 9.644,46.574 14.543,51.473C19.443,56.373 26.088,59.125 33.017,59.125C39.945,59.125 46.59,56.373 51.49,51.473C56.389,46.574 59.142,39.929 59.142,33C59.142,26.071 56.389,19.426 51.49,14.527C46.59,9.627 39.945,6.875 33.017,6.875Z" fill="#039BE5"/>
<path d="M36.553,39.925L43.314,39.925L44.375,33.056L36.552,33.056L36.552,29.303C36.552,26.449 37.484,23.919 40.153,23.919L44.441,23.919L44.441,17.926C43.688,17.824 42.094,17.601 39.083,17.601C32.795,17.601 29.109,20.922 29.109,28.487L29.109,33.056L22.645,33.056L22.645,39.925L29.109,39.925L29.109,58.802C30.389,58.994 31.686,59.125 33.017,59.125C34.22,59.125 35.394,59.015 36.553,58.858L36.553,39.925Z" fill="#FFFFFF"/>
</svg>
