<svg width="22" height="20" viewBox="0 0 22 20" fill="none" xmlns="http://www.w3.org/2000/svg" xmlns:xlink="http://www.w3.org/1999/xlink">
<path d="M10.982,19.3C10.776,19.3 10.576,19.266 10.382,19.198C10.189,19.13 10.022,19.024 9.884,18.88L8.605,17.692C6.261,15.551 4.24,13.508 2.544,11.565C0.848,9.621 0,7.622 0,5.567C0,3.987 0.534,2.664 1.602,1.598C2.67,0.533 3.99,0 5.561,0C6.462,0 7.39,0.232 8.345,0.695C9.3,1.158 10.183,1.999 10.994,3.217C11.877,1.999 12.774,1.158 13.682,0.695C14.59,0.232 15.505,0 16.428,0C17.998,0 19.317,0.533 20.385,1.598C21.453,2.664 21.987,3.987 21.987,5.567C21.987,7.644 21.12,9.661 19.387,11.618C17.653,13.575 15.661,15.592 13.411,17.672L12.111,18.88C11.96,19.024 11.785,19.13 11.588,19.198C11.39,19.266 11.188,19.3 10.982,19.3Z" fill="#FF5353"/>
</svg>
