<svg width="60" height="60" viewBox="0 0 60 60" fill="none" xmlns="http://www.w3.org/2000/svg" xmlns:xlink="http://www.w3.org/1999/xlink">
<path d="M53.85,25.104L51.836,25.104L51.836,25L29.336,25L29.336,35L43.465,35C41.404,40.821 35.865,45 29.336,45C21.053,45 14.336,38.284 14.336,30C14.336,21.716 21.053,15 29.336,15C33.16,15 36.639,16.443 39.288,18.799L46.359,11.727C41.894,7.566 35.921,5 29.336,5C15.53,5 4.336,16.194 4.336,30C4.336,43.806 15.53,55 29.336,55C43.143,55 54.336,43.806 54.336,30C54.336,28.324 54.164,26.688 53.85,25.104Z" fill="#FBC02D"/>
<path d="M7.219,18.364L15.432,24.387C17.655,18.885 23.038,15 29.336,15C33.16,15 36.639,16.443 39.288,18.799L46.359,11.727C41.894,7.566 35.921,5 29.336,5C19.734,5 11.406,10.421 7.219,18.364Z" fill="#E53935"/>
<path d="M29.336,55C35.794,55 41.661,52.529 46.098,48.51L38.36,41.962C35.85,43.864 32.73,45 29.336,45C22.834,45 17.313,40.854 15.233,35.067L7.08,41.349C11.218,49.445 19.62,55 29.336,55Z" fill="#4CAF50"/>
<path d="M53.85,25.104L53.83,25L51.836,25L29.336,25L29.336,35L43.465,35C42.475,37.796 40.676,40.207 38.356,41.964L38.36,41.961L46.098,48.509C45.55,49.006 54.336,42.5 54.336,30C54.336,28.324 54.164,26.688 53.85,25.104Z" fill="#1565C0"/>
</svg>
