<svg width="722" height="1354" viewBox="0 0 722 1354" fill="none" xmlns="http://www.w3.org/2000/svg" xmlns:xlink="http://www.w3.org/1999/xlink">
<path d="M0,82.042C0,36.755 36.713,0 82,0L640,0C685.288,0 722,36.713 722,82L722,826C696.634,826 676.072,848.386 676.072,876C676.072,903.614 696.634,926 722,926L722,1272C722,1317.288 685.288,1354 640,1354L82,1354C36.713,1354 0,1317.282 0,1271.994L0,1056L0,926C25.366,926 45.929,903.614 45.929,876C45.929,848.386 25.366,826 0,826L0,82.042Z" clip-rule="evenodd" fill-rule="evenodd" fill="#FFFFFF"/>
</svg>
