<svg width="50" height="56" viewBox="0 0 50 56" fill="none" xmlns="http://www.w3.org/2000/svg" xmlns:xlink="http://www.w3.org/1999/xlink">
<path d="M48.089,39.7C46.796,42.573 46.172,43.858 44.508,46.394C42.178,49.937 38.892,54.362 34.833,54.391C31.219,54.423 30.286,52.033 25.378,52.075C20.475,52.098 19.453,54.437 15.835,54.4C11.77,54.362 8.663,50.378 6.333,46.839C-0.183,36.916 -0.872,25.281 3.155,19.094C6.005,14.706 10.51,12.128 14.742,12.128C19.055,12.128 21.764,14.495 25.327,14.495C28.786,14.495 30.891,12.123 35.878,12.123C39.647,12.123 43.631,14.177 46.481,17.72C37.163,22.83 38.677,36.137 48.089,39.7ZM32.091,8.162C33.905,5.833 35.283,2.547 34.781,-0.8C31.824,-0.598 28.364,1.291 26.344,3.737C24.511,5.969 22.992,9.278 23.583,12.48C26.813,12.583 30.155,10.656 32.091,8.162Z" fill="#000000"/>
</svg>
