<svg width="30" height="6" viewBox="0 0 30 6" fill="none" xmlns="http://www.w3.org/2000/svg" xmlns:xlink="http://www.w3.org/1999/xlink">
<path d="M2.462,5C1.637,5 0.93,4.706 0.343,4.119C-0.245,3.531 -0.538,2.825 -0.538,2C-0.538,1.175 -0.245,0.469 0.343,-0.119C0.93,-0.706 1.637,-1 2.462,-1C3.287,-1 3.993,-0.706 4.581,-0.119C5.168,0.469 5.462,1.175 5.462,2C5.462,2.825 5.168,3.531 4.581,4.119C3.993,4.706 3.287,5 2.462,5ZM14,5C13.175,5 12.469,4.706 11.882,4.119C11.294,3.531 11,2.825 11,2C11,1.175 11.294,0.469 11.882,-0.119C12.469,-0.706 13.175,-1 14,-1C14.825,-1 15.531,-0.706 16.119,-0.119C16.706,0.469 17,1.175 17,2C17,2.825 16.706,3.531 16.119,4.119C15.531,4.706 14.825,5 14,5ZM25.539,5C24.714,5 24.007,4.706 23.42,4.119C22.832,3.531 22.539,2.825 22.539,2C22.539,1.175 22.832,0.469 23.42,-0.119C24.007,-0.706 24.714,-1 25.539,-1C26.364,-1 27.07,-0.706 27.657,-0.119C28.245,0.469 28.539,1.175 28.539,2C28.539,2.825 28.245,3.531 27.657,4.119C27.07,4.706 26.364,5 25.539,5Z" fill="#000000"/>
</svg>
