<svg width="18" height="14" viewBox="0 0 18 14" fill="none" xmlns="http://www.w3.org/2000/svg" xmlns:xlink="http://www.w3.org/1999/xlink">
<path d="M5.008,10.677L15.775,-0.101C15.903,-0.216 16.06,-0.276 16.245,-0.28C16.43,-0.283 16.587,-0.223 16.718,-0.1C16.848,0.032 16.914,0.19 16.914,0.373C16.914,0.557 16.848,0.708 16.718,0.827L5.607,11.944C5.432,12.119 5.232,12.207 5.008,12.207C4.783,12.207 4.591,12.119 4.43,11.944L-0.721,6.793C-0.858,6.669 -0.924,6.516 -0.92,6.334C-0.916,6.152 -0.848,5.996 -0.716,5.865C-0.585,5.742 -0.429,5.681 -0.249,5.681C-0.07,5.681 0.09,5.742 0.231,5.865L5.008,10.677Z" fill="#1B1A1D"/>
</svg>
