<svg width="44" height="42" viewBox="0 0 44 42" fill="none" xmlns="http://www.w3.org/2000/svg" xmlns:xlink="http://www.w3.org/1999/xlink">
<path d="M8.144,34.672L2.804,40.029C2.286,40.547 1.692,40.671 1.02,40.402C0.349,40.132 0.013,39.623 0.013,38.874L0.013,3.267C0.013,2.387 0.338,1.621 0.989,0.971C1.64,0.32 2.404,-0.005 3.284,-0.005L40.716,-0.005C41.596,-0.005 42.36,0.32 43.011,0.971C43.662,1.621 43.987,2.387 43.987,3.266L43.987,31.4C43.987,32.28 43.662,33.045 43.011,33.696C42.36,34.346 41.596,34.672 40.716,34.672L8.144,34.672ZM7.069,32.114L40.712,32.114C40.891,32.114 41.055,32.039 41.205,31.89C41.355,31.74 41.43,31.575 41.43,31.396L41.43,3.27C41.43,3.091 41.355,2.927 41.205,2.777C41.055,2.627 40.891,2.553 40.712,2.553L3.288,2.553C3.109,2.553 2.945,2.627 2.795,2.777C2.645,2.927 2.57,3.091 2.57,3.27L2.57,36.861L7.069,32.114ZM9.99,26.03L24.474,26.03C24.815,26.03 25.11,25.905 25.359,25.655C25.609,25.406 25.733,25.101 25.733,24.74C25.733,24.379 25.609,24.077 25.359,23.835C25.11,23.593 24.815,23.472 24.474,23.472L9.99,23.472C9.619,23.472 9.31,23.597 9.062,23.849C8.815,24.1 8.691,24.398 8.691,24.741C8.691,25.115 8.815,25.423 9.062,25.666C9.31,25.908 9.619,26.03 9.99,26.03ZM9.99,18.639L34.05,18.639C34.391,18.639 34.686,18.514 34.935,18.265C35.184,18.016 35.309,17.711 35.309,17.35C35.309,16.989 35.184,16.687 34.935,16.445C34.686,16.203 34.391,16.081 34.05,16.081L9.99,16.081C9.619,16.081 9.31,16.207 9.062,16.458C8.815,16.71 8.691,17.007 8.691,17.351C8.691,17.725 8.815,18.033 9.062,18.275C9.31,18.518 9.619,18.639 9.99,18.639ZM9.99,11.249L34.05,11.249C34.391,11.249 34.686,11.124 34.935,10.875C35.184,10.625 35.309,10.32 35.309,9.959C35.309,9.598 35.184,9.297 34.935,9.055C34.686,8.812 34.391,8.691 34.05,8.691L9.99,8.691C9.619,8.691 9.31,8.817 9.062,9.068C8.815,9.32 8.691,9.617 8.691,9.961C8.691,10.335 8.815,10.643 9.062,10.885C9.31,11.127 9.619,11.249 9.99,11.249Z" fill="#C1C1CB"/>
</svg>
