<svg width="32" height="30" viewBox="0 0 32 30" fill="none" xmlns="http://www.w3.org/2000/svg" xmlns:xlink="http://www.w3.org/1999/xlink">
<path d="M15.984,28.409C15.627,28.409 15.269,28.345 14.909,28.217C14.549,28.089 14.232,27.888 13.958,27.615L11.564,25.438C8.609,22.744 5.971,20.097 3.649,17.498C1.328,14.898 0.167,12.113 0.167,9.143C0.167,6.778 0.964,4.798 2.559,3.203C4.154,1.608 6.135,0.81 8.5,0.81C9.844,0.81 11.171,1.12 12.483,1.74C13.793,2.359 14.966,3.366 16,4.759C17.034,3.366 18.207,2.359 19.518,1.74C20.829,1.12 22.156,0.81 23.5,0.81C25.865,0.81 27.845,1.608 29.441,3.203C31.036,4.798 31.833,6.778 31.833,9.143C31.833,12.146 30.653,14.961 28.292,17.59C25.93,20.22 23.298,22.844 20.394,25.464L18.025,27.615C17.752,27.888 17.433,28.089 17.068,28.217C16.702,28.345 16.341,28.409 15.984,28.409Z" fill="#000000"/>
</svg>
