<svg width="16" height="16" viewBox="0 0 16 16" fill="none" xmlns="http://www.w3.org/2000/svg" xmlns:xlink="http://www.w3.org/1999/xlink">
<path d="M8,7.692C7.035,7.692 6.21,7.35 5.526,6.666C4.842,5.982 4.5,5.158 4.5,4.192C4.5,3.227 4.842,2.402 5.526,1.718C6.21,1.034 7.035,0.692 8,0.692C8.965,0.692 9.79,1.034 10.474,1.718C11.158,2.402 11.5,3.227 11.5,4.192C11.5,5.158 11.158,5.982 10.474,6.666C9.79,7.35 8.965,7.692 8,7.692ZM0.5,13.788L0.5,13.084C0.5,12.595 0.633,12.141 0.899,11.724C1.165,11.307 1.521,10.986 1.965,10.761C2.954,10.277 3.951,9.914 4.957,9.671C5.963,9.429 6.977,9.308 8,9.308C9.023,9.308 10.037,9.429 11.043,9.671C12.049,9.914 13.046,10.277 14.035,10.761C14.479,10.986 14.835,11.307 15.101,11.724C15.367,12.141 15.5,12.595 15.5,13.084L15.5,13.788C15.5,14.21 15.352,14.569 15.057,14.864C14.761,15.16 14.403,15.308 13.981,15.308L2.019,15.308C1.597,15.308 1.239,15.16 0.943,14.864C0.648,14.569 0.5,14.21 0.5,13.788Z" fill="#FFFFFF"/>
</svg>
