<svg width="36" height="36" viewBox="0 0 36 36" fill="none" xmlns="http://www.w3.org/2000/svg" xmlns:xlink="http://www.w3.org/1999/xlink">
<path d="M13.006,24.804C9.634,24.804 6.783,23.638 4.452,21.307C2.121,18.975 0.956,16.151 0.956,12.834C0.956,9.516 2.116,6.692 4.435,4.36C6.753,2.028 9.581,0.862 12.919,0.862C16.256,0.862 19.09,2.028 21.42,4.36C23.752,6.692 24.917,9.517 24.917,12.836C24.917,14.225 24.675,15.58 24.189,16.902C23.703,18.224 23.014,19.424 22.123,20.504L34.284,32.557C34.481,32.754 34.582,33.018 34.588,33.347C34.595,33.676 34.486,33.952 34.261,34.175C34.037,34.398 33.761,34.51 33.433,34.51C33.105,34.51 32.844,34.397 32.65,34.172L20.55,22.06C19.564,22.957 18.405,23.639 17.074,24.105C15.742,24.571 14.386,24.804 13.006,24.804ZM12.968,22.612C15.683,22.612 17.988,21.665 19.883,19.772C21.778,17.879 22.725,15.564 22.725,12.829C22.725,10.093 21.778,7.78 19.883,5.89C17.988,3.999 15.677,3.054 12.95,3.054C10.206,3.054 7.887,4.001 5.991,5.894C4.096,7.787 3.148,10.101 3.148,12.837C3.148,15.573 4.097,17.886 5.994,19.776C7.891,21.666 10.216,22.612 12.968,22.612Z" fill="#1B1A1D"/>
</svg>
