<svg width="44" height="40" viewBox="0 0 44 40" fill="none" xmlns="http://www.w3.org/2000/svg" xmlns:xlink="http://www.w3.org/1999/xlink">
<path d="M28.35,10.65C29.317,11.617 30.025,12.717 30.475,13.95C30.925,15.183 31.083,16.45 30.95,17.75C30.95,18.25 30.767,18.675 30.4,19.025C30.033,19.375 29.6,19.55 29.1,19.55C28.6,19.55 28.175,19.375 27.825,19.025C27.475,18.675 27.3,18.25 27.3,17.75C27.467,16.883 27.417,16.05 27.15,15.25C26.883,14.45 26.467,13.767 25.9,13.2C25.333,12.633 24.65,12.2 23.85,11.9C23.05,11.6 22.2,11.533 21.3,11.7C20.8,11.7 20.375,11.517 20.025,11.15C19.675,10.783 19.5,10.35 19.5,9.85C19.5,9.35 19.675,8.925 20.025,8.575C20.375,8.225 20.8,8.05 21.3,8.05C22.567,7.917 23.817,8.075 25.05,8.525C26.283,8.975 27.383,9.683 28.35,10.65ZM22,6C21.367,6 20.75,6.025 20.15,6.075C19.55,6.125 18.95,6.217 18.35,6.35C17.783,6.45 17.275,6.367 16.825,6.1C16.375,5.833 16.067,5.433 15.9,4.9C15.733,4.367 15.792,3.85 16.075,3.35C16.358,2.85 16.767,2.55 17.3,2.45C18.067,2.283 18.842,2.167 19.625,2.1C20.408,2.033 21.2,2 22,2C26.567,2 30.742,3.2 34.525,5.6C38.308,8 41.2,11.233 43.2,15.3C43.333,15.567 43.433,15.842 43.5,16.125C43.567,16.408 43.6,16.7 43.6,17C43.6,17.3 43.575,17.592 43.525,17.875C43.475,18.158 43.383,18.433 43.25,18.7C42.65,20.033 41.908,21.283 41.025,22.45C40.142,23.617 39.167,24.683 38.1,25.65C37.7,26.017 37.233,26.167 36.7,26.1C36.167,26.033 35.733,25.767 35.4,25.3C35.067,24.833 34.925,24.325 34.975,23.775C35.025,23.225 35.25,22.767 35.65,22.4C36.45,21.633 37.183,20.8 37.85,19.9C38.517,19 39.1,18.033 39.6,17C37.933,13.633 35.525,10.958 32.375,8.975C29.225,6.992 25.767,6 22,6ZM22,32C17.533,32 13.45,30.792 9.75,28.375C6.05,25.958 3.133,22.783 1,18.85C0.833,18.583 0.708,18.292 0.625,17.975C0.542,17.658 0.5,17.333 0.5,17C0.5,16.667 0.533,16.35 0.6,16.05C0.667,15.75 0.783,15.45 0.95,15.15C1.617,13.817 2.392,12.542 3.275,11.325C4.158,10.108 5.167,9 6.3,8L2.15,3.8C1.783,3.4 1.608,2.925 1.625,2.375C1.642,1.825 1.833,1.367 2.2,1C2.567,0.633 3.033,0.45 3.6,0.45C4.167,0.45 4.633,0.633 5,1L39,35C39.367,35.367 39.558,35.825 39.575,36.375C39.592,36.925 39.4,37.4 39,37.8C38.633,38.167 38.167,38.35 37.6,38.35C37.033,38.35 36.567,38.167 36.2,37.8L29.2,30.9C28.033,31.267 26.85,31.542 25.65,31.725C24.45,31.908 23.233,32 22,32ZM9.1,10.8C8.133,11.667 7.25,12.617 6.45,13.65C5.65,14.683 4.967,15.8 4.4,17C6.067,20.367 8.475,23.042 11.625,25.025C14.775,27.008 18.233,28 22,28C22.667,28 23.317,27.958 23.95,27.875C24.583,27.792 25.233,27.7 25.9,27.6L24.1,25.7C23.733,25.8 23.383,25.875 23.05,25.925C22.717,25.975 22.367,26 22,26C19.5,26 17.375,25.125 15.625,23.375C13.875,21.625 13,19.5 13,17C13,16.633 13.025,16.283 13.075,15.95C13.125,15.617 13.2,15.267 13.3,14.9L9.1,10.8Z" fill="#000000"/>
</svg>
