<svg width="46" height="46" viewBox="0 0 46 46" fill="none" xmlns="http://www.w3.org/2000/svg" xmlns:xlink="http://www.w3.org/1999/xlink">
<path d="M1.583,10.378C1.086,10.378 0.671,10.21 0.336,9.875C0.001,9.54 -0.167,9.124 -0.167,8.628L-0.167,1.943C-0.167,1.345 0.035,0.844 0.44,0.44C0.844,0.036 1.345,-0.167 1.943,-0.167L8.628,-0.167C9.124,-0.167 9.54,0.001 9.875,0.337C10.21,0.672 10.378,1.088 10.378,1.584C10.378,2.08 10.21,2.496 9.875,2.83C9.54,3.166 9.124,3.333 8.628,3.333L3.333,3.333L3.333,8.628C3.333,9.124 3.165,9.54 2.83,9.875C2.494,10.21 2.079,10.378 1.583,10.378ZM1.943,44.167C1.345,44.167 0.844,43.965 0.44,43.56C0.035,43.156 -0.167,42.655 -0.167,42.057L-0.167,35.372C-0.167,34.876 0.001,34.46 0.337,34.125C0.672,33.79 1.088,33.622 1.584,33.622C2.08,33.622 2.496,33.79 2.83,34.125C3.166,34.46 3.333,34.876 3.333,35.372L3.333,40.667L8.628,40.667C9.124,40.667 9.54,40.835 9.875,41.17C10.21,41.506 10.378,41.921 10.378,42.417C10.378,42.914 10.21,43.329 9.875,43.664C9.54,43.999 9.124,44.167 8.628,44.167L1.943,44.167ZM35.372,44.167C34.876,44.167 34.46,43.999 34.125,43.663C33.789,43.328 33.622,42.912 33.622,42.416C33.622,41.92 33.789,41.504 34.125,41.17C34.46,40.834 34.876,40.667 35.372,40.667L40.667,40.667L40.667,35.372C40.667,34.876 40.834,34.46 41.17,34.125C41.506,33.79 41.921,33.622 42.417,33.622C42.913,33.622 43.329,33.79 43.664,34.125C43.999,34.46 44.167,34.876 44.167,35.372L44.167,42.057C44.167,42.655 43.964,43.156 43.56,43.56C43.156,43.965 42.655,44.167 42.057,44.167L35.372,44.167ZM42.416,10.378C41.92,10.378 41.504,10.21 41.169,9.875C40.834,9.54 40.667,9.124 40.667,8.628L40.667,3.333L35.372,3.333C34.876,3.333 34.46,3.166 34.125,2.83C33.789,2.494 33.622,2.079 33.622,1.583C33.622,1.087 33.789,0.671 34.125,0.336C34.46,0.001 34.876,-0.167 35.372,-0.167L42.057,-0.167C42.655,-0.167 43.156,0.036 43.56,0.44C43.964,0.844 44.167,1.345 44.167,1.943L44.167,8.628C44.167,9.124 43.999,9.54 43.663,9.875C43.328,10.21 42.912,10.378 42.416,10.378ZM34.183,37.346L34.183,34.183L37.346,34.183L37.346,37.346L34.183,37.346ZM34.183,31.019L34.183,27.856L37.346,27.856L37.346,31.019L34.183,31.019ZM31.019,34.183L31.019,31.019L34.183,31.019L34.183,34.183L31.019,34.183ZM27.855,37.346L27.855,34.183L31.019,34.183L31.019,37.346L27.855,37.346ZM24.692,34.183L24.692,31.019L27.855,31.019L27.855,34.183L24.692,34.183ZM31.019,27.856L31.019,24.692L34.183,24.692L34.183,27.856L31.019,27.856ZM27.855,31.019L27.855,27.856L31.019,27.856L31.019,31.019L27.855,31.019ZM24.692,27.856L24.692,24.692L27.855,24.692L27.855,27.856L24.692,27.856ZM26.796,19.308C26.198,19.308 25.698,19.106 25.296,18.701C24.893,18.297 24.692,17.796 24.692,17.197L24.692,8.758C24.692,8.16 24.894,7.66 25.299,7.257C25.703,6.855 26.204,6.654 26.802,6.654L35.242,6.654C35.84,6.654 36.34,6.856 36.742,7.26C37.145,7.665 37.346,8.166 37.346,8.764L37.346,17.204C37.346,17.802 37.144,18.302 36.74,18.704C36.335,19.107 35.834,19.308 35.236,19.308L26.796,19.308ZM8.758,37.346C8.16,37.346 7.66,37.144 7.257,36.74C6.855,36.335 6.654,35.834 6.654,35.236L6.654,26.796C6.654,26.199 6.856,25.698 7.26,25.296C7.665,24.893 8.166,24.692 8.764,24.692L17.204,24.692C17.801,24.692 18.302,24.894 18.704,25.299C19.107,25.703 19.308,26.205 19.308,26.803L19.308,35.242C19.308,35.84 19.106,36.34 18.701,36.743C18.297,37.145 17.795,37.346 17.197,37.346L8.758,37.346ZM8.758,19.308C8.16,19.308 7.66,19.106 7.257,18.701C6.855,18.297 6.654,17.796 6.654,17.197L6.654,8.758C6.654,8.16 6.856,7.66 7.26,7.257C7.665,6.855 8.166,6.654 8.764,6.654L17.204,6.654C17.801,6.654 18.302,6.856 18.704,7.26C19.107,7.665 19.308,8.166 19.308,8.764L19.308,17.204C19.308,17.802 19.106,18.302 18.701,18.704C18.297,19.107 17.795,19.308 17.197,19.308L8.758,19.308ZM9.436,34.564L16.525,34.564L16.525,27.475L9.436,27.475L9.436,34.564ZM9.436,16.525L16.525,16.525L16.525,9.436L9.436,9.436L9.436,16.525ZM27.474,16.525L34.564,16.525L34.564,9.436L27.474,9.436L27.474,16.525Z" fill="#000000"/>
</svg>
