<svg width="44" height="44" viewBox="0 0 44 44" fill="none" xmlns="http://www.w3.org/2000/svg" xmlns:xlink="http://www.w3.org/1999/xlink">
<path d="M4.5,39.5L7.654,39.5L33.245,13.909L30.091,10.755L4.5,36.346L4.5,39.5ZM3.01,43.25C2.37,43.25 1.833,43.033 1.4,42.6C0.967,42.167 0.75,41.63 0.75,40.99L0.75,36.659C0.75,36.049 0.867,35.468 1.101,34.916C1.335,34.363 1.657,33.882 2.068,33.471L33.726,1.827C34.104,1.484 34.521,1.218 34.978,1.031C35.435,0.844 35.914,0.75 36.416,0.75C36.917,0.75 37.402,0.839 37.872,1.017C38.342,1.195 38.758,1.478 39.12,1.866L42.173,4.957C42.561,5.319 42.837,5.736 43.002,6.207C43.167,6.678 43.25,7.149 43.25,7.621C43.25,8.124 43.164,8.603 42.993,9.06C42.821,9.517 42.548,9.935 42.173,10.313L10.529,41.932C10.118,42.343 9.637,42.665 9.084,42.899C8.532,43.133 7.951,43.25 7.341,43.25L3.01,43.25ZM31.641,12.359L30.091,10.755L33.245,13.909L31.641,12.359Z" fill="#FFFFFF"/>
</svg>
