<svg width="42" height="38" viewBox="0 0 42 38" fill="none" xmlns="http://www.w3.org/2000/svg" xmlns:xlink="http://www.w3.org/1999/xlink">
<path d="M2.616,37C1.605,37 0.75,36.65 0.05,35.95C-0.65,35.25 -1,34.395 -1,33.385L-1,10.615C-1,9.605 -0.65,8.75 0.05,8.05C0.75,7.35 1.605,7 2.616,7L8.723,7L11.339,4.166C11.669,3.807 12.068,3.523 12.534,3.314C13,3.105 13.489,3 14,3L22.115,3C22.541,3 22.897,3.144 23.184,3.432C23.472,3.719 23.615,4.075 23.615,4.501C23.615,4.926 23.472,5.282 23.184,5.569C22.897,5.856 22.541,6 22.115,6L13.731,6L10.062,10L2.616,10C2.436,10 2.288,10.058 2.173,10.173C2.058,10.288 2,10.436 2,10.615L2,33.385C2,33.564 2.058,33.712 2.173,33.827C2.288,33.942 2.436,34 2.616,34L33.385,34C33.564,34 33.712,33.942 33.827,33.827C33.942,33.712 34,33.564 34,33.385L34,17.885C34,17.459 34.144,17.103 34.431,16.816C34.719,16.528 35.076,16.385 35.5,16.385C35.926,16.385 36.282,16.528 36.569,16.816C36.856,17.103 37,17.459 37,17.885L37,33.385C37,34.395 36.65,35.25 35.95,35.95C35.25,36.65 34.395,37 33.385,37L2.616,37ZM34,6L31.5,6C31.075,6 30.719,5.856 30.431,5.568C30.144,5.281 30,4.925 30,4.499C30,4.074 30.144,3.718 30.431,3.431C30.719,3.144 31.075,3 31.5,3L34,3L34,0.5C34,0.075 34.144,-0.281 34.431,-0.568C34.719,-0.856 35.076,-1 35.5,-1C35.926,-1 36.282,-0.856 36.569,-0.568C36.856,-0.281 37,0.075 37,0.5L37,3L39.5,3C39.925,3 40.281,3.144 40.569,3.432C40.856,3.719 41,4.075 41,4.501C41,4.926 40.856,5.282 40.569,5.569C40.281,5.856 39.925,6 39.5,6L37,6L37,8.5C37,8.925 36.856,9.281 36.569,9.569C36.281,9.856 35.924,10 35.5,10C35.074,10 34.718,9.856 34.431,9.569C34.144,9.281 34,8.925 34,8.5L34,6ZM18,30.23C20.295,30.23 22.24,29.432 23.837,27.837C25.432,26.24 26.23,24.295 26.23,22C26.23,19.705 25.432,17.76 23.837,16.164C22.24,14.568 20.295,13.769 18,13.769C15.705,13.769 13.759,14.568 12.164,16.164C10.568,17.76 9.77,19.705 9.77,22C9.77,24.295 10.568,26.24 12.164,27.837C13.759,29.432 15.705,30.23 18,30.23ZM18,27.231C16.523,27.231 15.282,26.728 14.277,25.723C13.272,24.718 12.769,23.477 12.769,22C12.769,20.523 13.272,19.282 14.277,18.277C15.282,17.272 16.523,16.769 18,16.769C19.477,16.769 20.718,17.272 21.723,18.277C22.728,19.282 23.231,20.523 23.231,22C23.231,23.477 22.728,24.718 21.723,25.723C20.718,26.728 19.477,27.231 18,27.231Z" fill="#000000"/>
</svg>
