<svg width="36" height="40" viewBox="0 0 36 40" fill="none" xmlns="http://www.w3.org/2000/svg" xmlns:xlink="http://www.w3.org/1999/xlink">
<path d="M26.5,33.5L22,33.5C21.575,33.5 21.219,33.356 20.932,33.069C20.644,32.781 20.5,32.425 20.5,32C20.5,31.574 20.644,31.218 20.932,30.931C21.219,30.644 21.575,30.5 22,30.5L26.5,30.5L26.5,26C26.5,25.575 26.644,25.219 26.932,24.932C27.219,24.644 27.576,24.5 28.001,24.5C28.426,24.5 28.782,24.644 29.069,24.932C29.356,25.219 29.5,25.575 29.5,26L29.5,30.5L34,30.5C34.425,30.5 34.781,30.644 35.069,30.932C35.356,31.219 35.5,31.576 35.5,32.001C35.5,32.426 35.356,32.782 35.069,33.069C34.781,33.356 34.425,33.5 34,33.5L29.5,33.5L29.5,38C29.5,38.425 29.356,38.781 29.069,39.069C28.781,39.356 28.424,39.5 28,39.5C27.574,39.5 27.218,39.356 26.931,39.069C26.644,38.781 26.5,38.425 26.5,38L26.5,33.5ZM2.615,35C1.605,35 0.75,34.65 0.05,33.95C-0.65,33.25 -1,32.395 -1,31.385L-1,8.616C-1,7.605 -0.65,6.75 0.05,6.05C0.75,5.35 1.605,5 2.615,5L5.385,5L5.385,2.308C5.385,1.872 5.532,1.506 5.828,1.211C6.123,0.917 6.489,0.77 6.926,0.77C7.363,0.77 7.728,0.917 8.021,1.211C8.315,1.506 8.461,1.872 8.461,2.308L8.461,5L19.615,5L19.615,2.27C19.615,1.845 19.759,1.488 20.047,1.201C20.334,0.913 20.691,0.77 21.116,0.77C21.541,0.77 21.898,0.913 22.184,1.201C22.472,1.488 22.615,1.845 22.615,2.27L22.615,5L25.385,5C26.395,5 27.25,5.35 27.95,6.05C28.65,6.75 29,7.605 29,8.616L29,18.808C29,19.233 28.856,19.589 28.569,19.877C28.281,20.164 27.924,20.308 27.5,20.308C27.074,20.308 26.718,20.164 26.431,19.877C26.144,19.589 26,19.233 26,18.808L26,16.616L2,16.616L2,31.385C2,31.539 2.064,31.68 2.193,31.808C2.32,31.936 2.461,32 2.615,32L14.789,32C15.213,32 15.57,32.144 15.857,32.432C16.145,32.719 16.289,33.076 16.289,33.501C16.289,33.926 16.145,34.282 15.857,34.569C15.57,34.856 15.213,35 14.789,35L2.615,35ZM2,13.616L26,13.616L26,8.616C26,8.462 25.936,8.321 25.808,8.193C25.68,8.064 25.538,8 25.385,8L2.615,8C2.461,8 2.32,8.064 2.193,8.193C2.064,8.321 2,8.462 2,8.616L2,13.616Z" fill="#000000"/>
</svg>
