<svg width="30" height="8" viewBox="0 0 30 8" fill="none" xmlns="http://www.w3.org/2000/svg" xmlns:xlink="http://www.w3.org/1999/xlink">
<path d="M2.462,6.56C1.637,6.56 0.93,6.266 0.343,5.679C-0.245,5.091 -0.538,4.385 -0.538,3.56C-0.538,2.735 -0.245,2.029 0.343,1.442C0.93,0.854 1.637,0.56 2.462,0.56C3.287,0.56 3.993,0.854 4.581,1.442C5.168,2.029 5.462,2.735 5.462,3.56C5.462,4.385 5.168,5.091 4.581,5.679C3.993,6.266 3.287,6.56 2.462,6.56ZM14,6.56C13.175,6.56 12.469,6.266 11.882,5.679C11.294,5.091 11,4.385 11,3.56C11,2.735 11.294,2.029 11.882,1.442C12.469,0.854 13.175,0.56 14,0.56C14.825,0.56 15.531,0.854 16.119,1.442C16.706,2.029 17,2.735 17,3.56C17,4.385 16.706,5.091 16.119,5.679C15.531,6.266 14.825,6.56 14,6.56ZM25.539,6.56C24.714,6.56 24.007,6.266 23.42,5.679C22.832,5.091 22.539,4.385 22.539,3.56C22.539,2.735 22.832,2.029 23.42,1.442C24.007,0.854 24.714,0.56 25.539,0.56C26.364,0.56 27.07,0.854 27.657,1.442C28.245,2.029 28.539,2.735 28.539,3.56C28.539,4.385 28.245,5.091 27.657,5.679C27.07,6.266 26.364,6.56 25.539,6.56Z" fill="#000000"/>
</svg>
