<svg width="36" height="38" viewBox="0 0 36 38" fill="none" xmlns="http://www.w3.org/2000/svg" xmlns:xlink="http://www.w3.org/1999/xlink">
<path d="M0.662,35.114L0.662,13.284C0.662,12.753 0.769,12.263 0.985,11.815C1.2,11.367 1.532,10.985 1.981,10.668L16.044,0.065C16.607,-0.375 17.255,-0.595 17.987,-0.595C18.72,-0.595 19.376,-0.375 19.957,0.065L34.019,10.668C34.468,10.985 34.8,11.367 35.015,11.815C35.231,12.263 35.338,12.753 35.338,13.284L35.338,35.114C35.338,35.813 35.087,36.414 34.584,36.917C34.081,37.42 33.48,37.672 32.781,37.672L24.125,37.672C23.653,37.672 23.265,37.513 22.962,37.197C22.659,36.881 22.507,36.486 22.507,36.014L22.507,23.746C22.507,23.3 22.349,22.919 22.033,22.602C21.716,22.286 21.322,22.128 20.85,22.128L15.15,22.128C14.678,22.128 14.29,22.286 13.987,22.602C13.684,22.919 13.533,23.3 13.533,23.746L13.533,36.014C13.533,36.486 13.375,36.881 13.059,37.197C12.742,37.513 12.348,37.672 11.875,37.672L3.22,37.672C2.52,37.672 1.919,37.42 1.416,36.917C0.913,36.414 0.662,35.813 0.662,35.114Z" fill="#1B1A1D"/>
</svg>
