<svg width="38" height="34" viewBox="0 0 38 34" fill="none" xmlns="http://www.w3.org/2000/svg" xmlns:xlink="http://www.w3.org/1999/xlink">
<path d="M8.323,28.301C7.89,28.301 7.484,28.107 7.106,27.718C6.728,27.33 6.539,26.913 6.539,26.467L6.539,22.817L30.327,22.817L30.961,23.451L30.961,6.286L34.692,6.286C35.125,6.286 35.526,6.484 35.894,6.881C36.262,7.278 36.446,7.701 36.446,8.151L36.446,31.872C36.446,32.525 36.158,32.964 35.582,33.189C35.007,33.415 34.497,33.307 34.054,32.863L29.492,28.301L8.323,28.301ZM6.539,19.624L1.946,24.217C1.503,24.66 0.993,24.769 0.418,24.543C-0.158,24.318 -0.446,23.879 -0.446,23.226L-0.446,1.213C-0.446,0.767 -0.262,0.35 0.106,-0.039C0.474,-0.427 0.875,-0.622 1.308,-0.622L25.985,-0.622C26.422,-0.622 26.829,-0.428 27.205,-0.042C27.581,0.345 27.769,0.763 27.769,1.213L27.769,17.79C27.769,18.236 27.581,18.653 27.205,19.042C26.829,19.43 26.422,19.624 25.985,19.624L6.539,19.624ZM25.577,17.432L25.577,1.571L1.746,1.571L1.746,18.817L3.131,17.432L25.577,17.432Z" fill="#000000"/>
</svg>
