<svg width="50" height="52" viewBox="0 0 50 52" fill="none" xmlns="http://www.w3.org/2000/svg" xmlns:xlink="http://www.w3.org/1999/xlink">
<path d="M37,44L31,44C30.433,44 29.959,43.808 29.575,43.425C29.192,43.041 29,42.566 29,41.999C29,41.432 29.192,40.957 29.575,40.575C29.959,40.192 30.433,40 31,40L37,40L37,34C37,33.433 37.192,32.959 37.575,32.575C37.959,32.192 38.434,32 39.001,32C39.568,32 40.043,32.192 40.425,32.575C40.809,32.959 41,33.433 41,34L41,40L47,40C47.567,40 48.042,40.192 48.425,40.575C48.808,40.959 49,41.434 49,42.001C49,42.568 48.808,43.043 48.425,43.425C48.042,43.809 47.567,44 47,44L41,44L41,50C41,50.567 40.808,51.042 40.425,51.425C40.041,51.808 39.566,52 38.999,52C38.432,52 37.957,51.808 37.575,51.425C37.192,51.042 37,50.567 37,50L37,44ZM5.154,46C3.807,46 2.667,45.533 1.733,44.6C0.8,43.667 0.333,42.527 0.333,41.179L0.333,10.821C0.333,9.474 0.8,8.333 1.733,7.4C2.667,6.467 3.807,6 5.154,6L8.846,6L8.846,2.41C8.846,1.829 9.043,1.342 9.437,0.949C9.831,0.556 10.319,0.359 10.901,0.359C11.484,0.359 11.97,0.556 12.361,0.949C12.753,1.342 12.949,1.829 12.949,2.41L12.949,6L27.821,6L27.821,2.359C27.821,1.793 28.013,1.318 28.396,0.934C28.779,0.551 29.254,0.359 29.821,0.359C30.389,0.359 30.863,0.551 31.246,0.934C31.629,1.318 31.821,1.793 31.821,2.359L31.821,6L35.513,6C36.86,6 38,6.467 38.933,7.4C39.867,8.333 40.333,9.474 40.333,10.821L40.333,24.411C40.333,24.977 40.142,25.452 39.758,25.835C39.375,26.219 38.899,26.41 38.333,26.41C37.766,26.41 37.291,26.219 36.908,25.835C36.525,25.452 36.333,24.977 36.333,24.411L36.333,21.487L4.333,21.487L4.333,41.179C4.333,41.385 4.419,41.573 4.59,41.743C4.761,41.915 4.949,42 5.154,42L21.385,42C21.951,42 22.426,42.192 22.809,42.575C23.193,42.959 23.385,43.434 23.385,44.001C23.385,44.568 23.193,45.043 22.809,45.425C22.426,45.809 21.951,46 21.385,46L5.154,46ZM4.333,17.487L36.333,17.487L36.333,10.821C36.333,10.615 36.248,10.427 36.077,10.257C35.906,10.086 35.718,10 35.513,10L5.154,10C4.949,10 4.761,10.086 4.59,10.257C4.419,10.427 4.333,10.615 4.333,10.821L4.333,17.487Z" fill="#000000"/>
</svg>
