<svg width="42" height="26" viewBox="0 0 42 26" fill="none" xmlns="http://www.w3.org/2000/svg" xmlns:xlink="http://www.w3.org/1999/xlink">
<path d="M3.116,25C2.121,25 1.27,24.646 0.562,23.938C-0.146,23.23 -0.5,22.379 -0.5,21.385L-0.5,2.615C-0.5,1.621 -0.146,0.77 0.562,0.062C1.27,-0.646 2.121,-1 3.116,-1L21.885,-1C22.879,-1 23.73,-0.646 24.438,0.062C25.146,0.77 25.5,1.621 25.5,2.615L25.5,21.385C25.5,22.379 25.146,23.23 24.438,23.938C23.73,24.646 22.879,25 21.885,25L3.116,25ZM31.317,10C30.795,10 30.362,9.828 30.017,9.483C29.672,9.138 29.5,8.705 29.5,8.183L29.5,0.817C29.5,0.295 29.672,-0.138 30.017,-0.483C30.362,-0.828 30.795,-1 31.317,-1L38.683,-1C39.205,-1 39.638,-0.828 39.983,-0.483C40.328,-0.138 40.5,0.295 40.5,0.817L40.5,8.183C40.5,8.705 40.328,9.138 39.983,9.483C39.638,9.828 39.205,10 38.683,10L31.317,10ZM6.5,17.904L18.5,17.904C18.855,17.904 19.121,17.74 19.299,17.412C19.477,17.083 19.451,16.765 19.223,16.458L15.973,12.108C15.786,11.867 15.545,11.746 15.25,11.746C14.955,11.746 14.714,11.867 14.527,12.108L11.5,16.154L9.473,13.458C9.286,13.217 9.045,13.096 8.75,13.096C8.455,13.096 8.214,13.217 8.027,13.458L5.777,16.458C5.549,16.765 5.523,17.083 5.701,17.412C5.879,17.74 6.145,17.904 6.5,17.904ZM31.317,25C30.795,25 30.362,24.827 30.017,24.483C29.672,24.138 29.5,23.705 29.5,23.183L29.5,15.817C29.5,15.295 29.672,14.862 30.017,14.517C30.362,14.172 30.795,14 31.317,14L38.683,14C39.205,14 39.638,14.172 39.983,14.517C40.328,14.862 40.5,15.295 40.5,15.817L40.5,23.183C40.5,23.705 40.328,24.138 39.983,24.483C39.638,24.827 39.205,25 38.683,25L31.317,25Z" fill="#FFFFFF"/>
</svg>
