<svg width="46" height="48" viewBox="0 0 46 48" fill="none" xmlns="http://www.w3.org/2000/svg" xmlns:xlink="http://www.w3.org/1999/xlink">
<path d="M19.231,47.75C18.378,47.75 17.642,47.467 17.022,46.901C16.402,46.336 16.024,45.64 15.89,44.812L15.279,40.134C14.609,39.91 13.923,39.596 13.219,39.193C12.516,38.788 11.887,38.356 11.332,37.894L7,39.736C6.215,40.082 5.426,40.115 4.633,39.836C3.839,39.557 3.223,39.051 2.784,38.318L-0.034,33.433C-0.473,32.699 -0.599,31.922 -0.413,31.103C-0.227,30.284 0.199,29.609 0.866,29.077L4.611,26.264C4.553,25.893 4.513,25.519 4.488,25.144C4.464,24.769 4.452,24.396 4.452,24.024C4.452,23.668 4.464,23.307 4.488,22.94C4.513,22.573 4.553,22.171 4.611,21.736L0.866,18.923C0.199,18.391 -0.223,17.711 -0.401,16.884C-0.579,16.058 -0.448,15.277 -0.009,14.543L2.784,9.731C3.223,9.013 3.839,8.51 4.633,8.224C5.426,7.937 6.215,7.966 7,8.313L11.308,10.13C11.911,9.653 12.554,9.216 13.238,8.82C13.923,8.424 14.595,8.106 15.255,7.866L15.89,3.188C16.024,2.36 16.402,1.664 17.022,1.099C17.642,0.533 18.378,0.25 19.231,0.25L24.77,0.25C25.622,0.25 26.358,0.533 26.978,1.099C27.599,1.664 27.976,2.36 28.111,3.188L28.722,7.889C29.472,8.162 30.15,8.48 30.757,8.844C31.365,9.208 31.978,9.636 32.597,10.13L37.025,8.313C37.81,7.966 38.599,7.937 39.392,8.224C40.186,8.51 40.802,9.013 41.24,9.731L44.034,14.568C44.473,15.301 44.6,16.078 44.413,16.897C44.228,17.716 43.801,18.391 43.135,18.923L39.293,21.807C39.383,22.211 39.432,22.589 39.44,22.94C39.448,23.291 39.452,23.644 39.452,24C39.452,24.34 39.444,24.685 39.428,25.036C39.412,25.387 39.354,25.789 39.255,26.241L43.024,29.077C43.691,29.609 44.121,30.284 44.315,31.103C44.509,31.922 44.386,32.699 43.947,33.433L41.115,38.293C40.677,39.027 40.057,39.534 39.255,39.812C38.454,40.091 37.661,40.057 36.875,39.711L32.597,37.87C31.978,38.364 31.346,38.8 30.702,39.18C30.058,39.56 29.398,39.87 28.722,40.111L28.111,44.812C27.976,45.64 27.599,46.336 26.978,46.901C26.358,47.467 25.622,47.75 24.77,47.75L19.231,47.75ZM19.5,44L24.414,44L25.313,37.303C26.589,36.97 27.754,36.496 28.81,35.882C29.867,35.268 30.885,34.479 31.866,33.514L38.077,36.125L40.539,31.875L35.116,27.789C35.324,27.141 35.466,26.506 35.541,25.884C35.616,25.263 35.654,24.635 35.654,24C35.654,23.349 35.616,22.721 35.541,22.116C35.466,21.51 35.324,20.891 35.116,20.259L40.587,16.125L38.125,11.875L31.842,14.524C31.005,13.63 30.003,12.84 28.835,12.154C27.666,11.468 26.484,10.982 25.289,10.697L24.5,4L19.539,4L18.711,10.673C17.436,10.974 16.258,11.436 15.178,12.057C14.098,12.68 13.067,13.481 12.086,14.461L5.875,11.875L3.414,16.125L8.813,20.149C8.604,20.742 8.459,21.359 8.375,22C8.292,22.641 8.25,23.315 8.25,24.024C8.25,24.675 8.292,25.312 8.375,25.938C8.459,26.562 8.596,27.18 8.789,27.789L3.414,31.875L5.875,36.125L12.063,33.5C13.011,34.474 14.026,35.272 15.106,35.894C16.186,36.516 17.38,36.994 18.688,37.327L19.5,44ZM22.029,31.5C24.109,31.5 25.879,30.77 27.339,29.31C28.799,27.85 29.529,26.08 29.529,24C29.529,21.92 28.799,20.15 27.339,18.69C25.879,17.23 24.109,16.5 22.029,16.5C19.923,16.5 18.147,17.23 16.7,18.69C15.253,20.15 14.529,21.92 14.529,24C14.529,26.08 15.253,27.85 16.7,29.31C18.147,30.77 19.923,31.5 22.029,31.5Z" fill="#FFFFFF"/>
</svg>
