<svg width="34" height="26" viewBox="0 0 34 26" fill="none" xmlns="http://www.w3.org/2000/svg" xmlns:xlink="http://www.w3.org/1999/xlink">
<path d="M4.746,11.5L11.393,18.146C11.69,18.444 11.837,18.792 11.833,19.191C11.829,19.589 11.672,19.944 11.362,20.254C11.051,20.544 10.7,20.694 10.308,20.704C9.916,20.714 9.564,20.564 9.254,20.254L0.266,11.266C-0.096,10.904 -0.277,10.482 -0.277,10C-0.277,9.518 -0.096,9.096 0.266,8.735L9.254,-0.254C9.531,-0.531 9.874,-0.672 10.283,-0.679C10.692,-0.685 11.051,-0.544 11.362,-0.254C11.672,0.056 11.827,0.413 11.827,0.816C11.827,1.218 11.672,1.574 11.362,1.885L4.746,8.5L23.5,8.5C26.126,8.5 28.365,9.427 30.219,11.281C32.073,13.135 33,15.374 33,18L33,23.5C33,23.926 32.856,24.282 32.569,24.569C32.282,24.856 31.926,25 31.5,25C31.074,25 30.718,24.856 30.431,24.569C30.144,24.282 30,23.926 30,23.5L30,18C30,16.205 29.365,14.673 28.096,13.404C26.827,12.135 25.295,11.5 23.5,11.5L4.746,11.5Z" fill="#000000"/>
</svg>
