<svg width="48" height="42" viewBox="0 0 48 42" fill="none" xmlns="http://www.w3.org/2000/svg" xmlns:xlink="http://www.w3.org/1999/xlink">
<path d="M23.976,41.387C23.542,41.387 23.117,41.319 22.701,41.182C22.284,41.045 21.921,40.806 21.611,40.464L18.883,37.94C13.858,33.352 9.529,28.975 5.894,24.81C2.26,20.645 0.443,16.361 0.443,11.957C0.443,8.572 1.588,5.738 3.878,3.454C6.168,1.171 8.998,0.029 12.368,0.029C14.293,0.029 16.279,0.525 18.325,1.518C20.371,2.511 22.263,4.313 24,6.923C25.894,4.313 27.814,2.511 29.759,1.518C31.703,0.525 33.665,0.029 35.644,0.029C39.01,0.029 41.837,1.171 44.125,3.454C46.413,5.738 47.558,8.572 47.558,11.957C47.558,16.409 45.7,20.731 41.986,24.924C38.271,29.117 34.002,33.441 29.18,37.896L26.391,40.479C26.06,40.816 25.686,41.051 25.27,41.185C24.854,41.32 24.422,41.387 23.976,41.387ZM22.816,10.022C21.541,7.712 19.978,5.926 18.125,4.664C16.273,3.401 14.344,2.769 12.339,2.769C9.685,2.769 7.496,3.63 5.771,5.352C4.045,7.075 3.183,9.283 3.183,11.977C3.183,14.152 3.848,16.411 5.179,18.754C6.51,21.098 8.193,23.414 10.229,25.702C12.266,27.99 14.47,30.229 16.841,32.419C19.213,34.609 21.431,36.632 23.495,38.486C23.639,38.63 23.808,38.702 24,38.702C24.193,38.702 24.361,38.63 24.505,38.486C26.569,36.636 28.787,34.615 31.159,32.423C33.531,30.231 35.732,27.981 37.763,25.673C39.794,23.365 41.478,21.04 42.814,18.696C44.15,16.353 44.818,14.109 44.818,11.966C44.818,9.279 43.948,7.075 42.209,5.352C40.469,3.63 38.285,2.769 35.655,2.769C33.613,2.769 31.672,3.394 29.834,4.644C27.996,5.894 26.423,7.691 25.116,10.033C24.957,10.287 24.776,10.469 24.575,10.578C24.374,10.688 24.163,10.743 23.943,10.743C23.723,10.743 23.506,10.687 23.29,10.576C23.075,10.464 22.917,10.28 22.816,10.022Z" fill="#FFFFFF"/>
</svg>
