<svg width="30" height="22" viewBox="0 0 30 22" fill="none" xmlns="http://www.w3.org/2000/svg" xmlns:xlink="http://www.w3.org/1999/xlink">
<path d="M24.654,10.998L0.268,10.998C-0.059,10.998 -0.327,10.9 -0.534,10.704C-0.742,10.508 -0.846,10.246 -0.846,9.919C-0.846,9.592 -0.742,9.325 -0.534,9.118C-0.327,8.91 -0.059,8.806 0.268,8.806L24.654,8.806L16.8,0.952C16.587,0.762 16.482,0.515 16.484,0.21C16.486,-0.095 16.605,-0.358 16.841,-0.577C17.041,-0.783 17.291,-0.886 17.591,-0.886C17.891,-0.886 18.152,-0.78 18.375,-0.567L27.875,8.914C28.012,9.087 28.121,9.249 28.203,9.401C28.284,9.553 28.325,9.726 28.325,9.919C28.325,10.126 28.284,10.305 28.203,10.457C28.121,10.609 28.012,10.753 27.875,10.891L18.4,20.385C18.194,20.591 17.941,20.697 17.641,20.704C17.341,20.71 17.084,20.604 16.871,20.385C16.635,20.165 16.52,19.901 16.525,19.593C16.53,19.284 16.642,19.016 16.862,18.791L24.654,10.998Z" fill="#1B1A1D"/>
</svg>
