<svg width="16" height="28" viewBox="0 0 16 28" fill="none" xmlns="http://www.w3.org/2000/svg" xmlns:xlink="http://www.w3.org/1999/xlink">
<path d="M12.727,2.206L12.727,14.431L15.318,16.753C15.404,16.832 15.465,16.926 15.5,17.035C15.536,17.144 15.553,17.248 15.553,17.348L15.553,17.815C15.553,18.036 15.472,18.228 15.309,18.392C15.145,18.557 14.952,18.64 14.73,18.64L8.548,18.64L8.548,26.396C8.548,26.545 8.518,26.68 8.457,26.804C8.396,26.927 8.322,27.04 8.237,27.143L8.035,27.338C7.94,27.441 7.834,27.492 7.717,27.492C7.601,27.492 7.502,27.442 7.42,27.341L7.224,27.143C7.116,27.04 7.035,26.926 6.983,26.801C6.93,26.675 6.904,26.542 6.904,26.401L6.904,18.64L0.722,18.64C0.48,18.64 0.278,18.556 0.116,18.388C-0.046,18.22 -0.127,18.027 -0.127,17.807L-0.127,17.342C-0.127,17.241 -0.109,17.138 -0.074,17.032C-0.038,16.927 0.03,16.835 0.131,16.756L2.533,14.431L2.533,2.206L1.594,2.206C1.355,2.206 1.157,2.126 0.997,1.965C0.838,1.804 0.759,1.608 0.759,1.376C0.759,1.145 0.838,0.951 0.997,0.795C1.157,0.639 1.355,0.562 1.594,0.562L13.692,0.562C13.91,0.562 14.099,0.643 14.26,0.805C14.421,0.967 14.501,1.158 14.501,1.378C14.501,1.618 14.421,1.817 14.26,1.972C14.099,2.128 13.91,2.206 13.692,2.206L12.727,2.206ZM2.094,16.995L13.165,16.995L11.083,15.04L11.083,2.206L4.177,2.206L4.177,15.031L2.094,16.995Z" transform="rotate(90 7.713 14.027)" fill="#000000"/>
</svg>
