<svg width="20" height="38" viewBox="0 0 20 38" fill="none" xmlns="http://www.w3.org/2000/svg" xmlns:xlink="http://www.w3.org/1999/xlink">
<path d="M15.662,18L0.596,2.935C0.199,2.537 0.005,2.064 0.015,1.516C0.026,0.967 0.23,0.494 0.627,0.096C1.024,-0.301 1.497,-0.5 2.046,-0.5C2.595,-0.5 3.068,-0.301 3.466,0.096L18.777,15.439C19.138,15.8 19.406,16.205 19.581,16.654C19.755,17.103 19.843,17.551 19.843,18C19.843,18.449 19.755,18.897 19.581,19.346C19.406,19.795 19.138,20.2 18.777,20.562L3.435,35.904C3.037,36.301 2.569,36.495 2.031,36.485C1.492,36.474 1.024,36.27 0.627,35.873C0.23,35.476 0.031,35.003 0.031,34.454C0.031,33.905 0.23,33.432 0.627,33.035L15.662,18Z" fill="#C1C1CB"/>
</svg>
