<svg width="30" height="30" viewBox="0 0 30 30" fill="none" xmlns="http://www.w3.org/2000/svg" xmlns:xlink="http://www.w3.org/1999/xlink">
<path d="M12.375,15.625L1.542,15.625C1.081,15.625 0.695,15.469 0.384,15.158C0.073,14.846 -0.083,14.46 -0.083,14C-0.083,13.539 0.073,13.153 0.384,12.842C0.695,12.531 1.081,12.375 1.542,12.375L12.375,12.375L12.375,1.542C12.375,1.081 12.531,0.695 12.843,0.384C13.154,0.073 13.54,-0.083 14.001,-0.083C14.461,-0.083 14.847,0.073 15.158,0.384C15.469,0.695 15.625,1.081 15.625,1.542L15.625,12.375L26.458,12.375C26.919,12.375 27.305,12.531 27.616,12.843C27.928,13.154 28.083,13.54 28.083,14.001C28.083,14.461 27.928,14.847 27.616,15.158C27.305,15.469 26.919,15.625 26.458,15.625L15.625,15.625L15.625,26.458C15.625,26.919 15.469,27.305 15.158,27.616C14.846,27.928 14.46,28.083 14,28.083C13.539,28.083 13.153,27.928 12.842,27.616C12.531,27.305 12.375,26.919 12.375,26.458L12.375,15.625Z" fill="#000000"/>
</svg>
