<svg width="36" height="36" viewBox="0 0 36 36" fill="none" xmlns="http://www.w3.org/2000/svg" xmlns:xlink="http://www.w3.org/1999/xlink">
<path d="M13.039,25.231C9.623,25.231 6.731,24.046 4.362,21.677C1.993,19.308 0.808,16.415 0.808,13C0.808,9.585 1.993,6.692 4.362,4.323C6.731,1.954 9.623,0.77 13.039,0.77C16.454,0.77 19.346,1.954 21.716,4.323C24.085,6.692 25.269,9.585 25.269,13C25.269,14.428 25.03,15.793 24.55,17.093C24.071,18.393 23.431,19.523 22.631,20.485L34.139,31.993C34.416,32.269 34.557,32.617 34.564,33.037C34.57,33.456 34.428,33.81 34.139,34.1C33.849,34.39 33.498,34.535 33.085,34.535C32.672,34.535 32.321,34.39 32.031,34.1L20.523,22.592C19.523,23.418 18.373,24.064 17.073,24.531C15.773,24.997 14.428,25.231 13.039,25.231ZM13.039,22.231C15.616,22.231 17.798,21.337 19.587,19.548C21.375,17.76 22.27,15.577 22.27,13C22.27,10.423 21.375,8.24 19.587,6.452C17.798,4.663 15.616,3.769 13.039,3.769C10.462,3.769 8.279,4.663 6.491,6.452C4.702,8.24 3.808,10.423 3.808,13C3.808,15.577 4.702,17.76 6.491,19.548C8.279,21.337 10.462,22.231 13.039,22.231Z" fill="#000000"/>
</svg>
