<svg width="40" height="44" viewBox="0 0 40 44" fill="none" xmlns="http://www.w3.org/2000/svg" xmlns:xlink="http://www.w3.org/1999/xlink">
<path d="M2.598,43.987C1.72,43.987 0.955,43.662 0.304,43.011C-0.346,42.361 -0.672,41.596 -0.672,40.717L-0.672,7.062C-0.672,6.183 -0.346,5.418 0.304,4.767C0.955,4.117 1.721,3.791 2.604,3.791L7.001,3.791L7.001,1.106C7.001,0.732 7.136,0.405 7.404,0.126C7.672,-0.153 8.002,-0.292 8.395,-0.292C8.804,-0.292 9.149,-0.153 9.43,0.126C9.71,0.405 9.85,0.732 9.85,1.106L9.85,3.791L28.239,3.791L28.239,1.067C28.239,0.689 28.371,0.368 28.635,0.104C28.899,-0.16 29.221,-0.292 29.603,-0.292C30.002,-0.292 30.338,-0.158 30.611,0.109C30.885,0.376 31.021,0.694 31.021,1.061L31.021,3.791L35.396,3.791C36.279,3.791 37.045,4.117 37.696,4.767C38.346,5.418 38.672,6.183 38.672,7.062L38.672,40.717C38.672,41.596 38.346,42.361 37.696,43.011C37.045,43.662 36.28,43.987 35.402,43.987L2.598,43.987ZM2.604,41.43L35.396,41.43C35.576,41.43 35.74,41.355 35.89,41.205C36.039,41.055 36.114,40.891 36.114,40.712L36.114,17.661L1.886,17.661L1.886,40.712C1.886,40.891 1.961,41.055 2.11,41.205C2.26,41.355 2.424,41.43 2.604,41.43ZM1.886,15.103L36.114,15.103L36.114,7.067C36.114,6.887 36.039,6.723 35.89,6.573C35.74,6.424 35.576,6.349 35.396,6.349L2.604,6.349C2.424,6.349 2.26,6.424 2.11,6.573C1.961,6.723 1.886,6.887 1.886,7.067L1.886,15.103ZM19.003,26.828C18.433,26.828 17.949,26.63 17.551,26.234C17.153,25.838 16.954,25.355 16.954,24.786C16.954,24.216 17.152,23.732 17.548,23.334C17.944,22.935 18.427,22.736 18.997,22.736C19.567,22.736 20.051,22.934 20.449,23.33C20.847,23.726 21.046,24.209 21.046,24.779C21.046,25.349 20.848,25.833 20.452,26.231C20.056,26.629 19.573,26.828 19.003,26.828ZM9.67,26.828C9.1,26.828 8.616,26.63 8.218,26.234C7.819,25.838 7.62,25.355 7.62,24.786C7.62,24.216 7.818,23.732 8.215,23.334C8.611,22.935 9.094,22.736 9.664,22.736C10.233,22.736 10.717,22.934 11.116,23.33C11.514,23.726 11.713,24.209 11.713,24.779C11.713,25.349 11.515,25.833 11.119,26.231C10.722,26.629 10.239,26.828 9.67,26.828ZM28.336,26.828C27.766,26.828 27.283,26.63 26.884,26.234C26.486,25.838 26.287,25.355 26.287,24.786C26.287,24.216 26.485,23.732 26.881,23.334C27.278,22.935 27.761,22.736 28.33,22.736C28.9,22.736 29.384,22.934 29.782,23.33C30.181,23.726 30.38,24.209 30.38,24.779C30.38,25.349 30.181,25.833 29.785,26.231C29.389,26.629 28.906,26.828 28.336,26.828ZM19.003,35.982C18.433,35.982 17.949,35.784 17.551,35.388C17.153,34.992 16.954,34.509 16.954,33.939C16.954,33.369 17.152,32.885 17.548,32.487C17.944,32.089 18.427,31.89 18.997,31.89C19.567,31.89 20.051,32.088 20.449,32.484C20.847,32.88 21.046,33.363 21.046,33.933C21.046,34.502 20.848,34.986 20.452,35.385C20.056,35.783 19.573,35.982 19.003,35.982ZM9.67,35.982C9.1,35.982 8.616,35.784 8.218,35.388C7.819,34.992 7.62,34.509 7.62,33.939C7.62,33.369 7.818,32.885 8.215,32.487C8.611,32.089 9.094,31.89 9.664,31.89C10.233,31.89 10.717,32.088 11.116,32.484C11.514,32.88 11.713,33.363 11.713,33.933C11.713,34.502 11.515,34.986 11.119,35.385C10.722,35.783 10.239,35.982 9.67,35.982ZM28.336,35.982C27.766,35.982 27.283,35.784 26.884,35.388C26.486,34.992 26.287,34.509 26.287,33.939C26.287,33.369 26.485,32.885 26.881,32.487C27.278,32.089 27.761,31.89 28.33,31.89C28.9,31.89 29.384,32.088 29.782,32.484C30.181,32.88 30.38,33.363 30.38,33.933C30.38,34.502 30.181,34.986 29.785,35.385C29.389,35.783 28.906,35.982 28.336,35.982Z" fill="#C1C1CB"/>
</svg>
