<svg width="40" height="40" viewBox="0 0 40 40" fill="none" xmlns="http://www.w3.org/2000/svg" xmlns:xlink="http://www.w3.org/1999/xlink">
<path d="M3.667,36.333L6.61,36.333L30.495,12.448L27.552,9.505L3.667,33.39L3.667,36.333ZM2.276,39.833C1.678,39.833 1.177,39.631 0.773,39.227C0.369,38.823 0.167,38.322 0.167,37.724L0.167,33.681C0.167,33.112 0.276,32.57 0.495,32.055C0.713,31.539 1.013,31.089 1.396,30.706L30.945,1.172C31.297,0.851 31.687,0.604 32.113,0.429C32.54,0.254 32.987,0.167 33.455,0.167C33.923,0.167 34.376,0.25 34.814,0.416C35.253,0.582 35.641,0.846 35.979,1.208L38.828,4.093C39.19,4.431 39.448,4.82 39.602,5.26C39.756,5.7 39.833,6.139 39.833,6.579C39.833,7.049 39.753,7.496 39.593,7.923C39.433,8.349 39.178,8.739 38.828,9.092L9.294,38.604C8.911,38.987 8.461,39.287 7.946,39.505C7.43,39.724 6.888,39.833 6.319,39.833L2.276,39.833ZM28.998,11.002L27.552,9.505L30.495,12.448L28.998,11.002Z" fill="#000000"/>
</svg>
