<svg width="46" height="36" viewBox="0 0 46 36" fill="none" xmlns="http://www.w3.org/2000/svg" xmlns:xlink="http://www.w3.org/1999/xlink">
<path d="M3.288,35.339C2.399,35.339 1.631,35.015 0.984,34.368C0.337,33.72 0.013,32.952 0.013,32.063L0.013,25.904C0.013,25.542 0.102,25.219 0.281,24.933C0.46,24.647 0.708,24.438 1.026,24.306C2.24,23.756 3.193,22.901 3.885,21.741C4.576,20.581 4.922,19.34 4.922,18.019C4.922,16.691 4.58,15.443 3.895,14.273C3.211,13.102 2.257,12.239 1.035,11.682C0.707,11.551 0.454,11.341 0.278,11.053C0.101,10.764 0.013,10.445 0.013,10.094L0.013,3.92C0.013,3.03 0.337,2.262 0.984,1.615C1.631,0.967 2.399,0.644 3.288,0.644L40.73,0.644C41.619,0.644 42.387,0.967 43.034,1.615C43.682,2.262 44.005,3.03 44.005,3.92L44.005,10.078C44.005,10.44 43.917,10.764 43.74,11.053C43.564,11.341 43.323,11.551 43.018,11.682C41.772,12.236 40.807,13.1 40.123,14.274C39.439,15.448 39.096,16.701 39.096,18.033C39.096,19.349 39.44,20.586 40.128,21.741C40.816,22.896 41.778,23.749 43.015,24.301C43.321,24.433 43.562,24.643 43.739,24.931C43.916,25.219 44.005,25.538 44.005,25.889L44.005,32.063C44.005,32.952 43.682,33.72 43.034,34.368C42.387,35.015 41.619,35.339 40.73,35.339L3.288,35.339ZM3.288,32.781L40.73,32.781C40.939,32.781 41.111,32.713 41.245,32.579C41.38,32.444 41.447,32.272 41.447,32.063L41.447,26.553C39.977,25.599 38.791,24.373 37.89,22.876C36.989,21.379 36.538,19.753 36.538,17.997C36.538,16.227 36.991,14.595 37.896,13.101C38.801,11.608 39.985,10.384 41.447,9.43L41.447,3.92C41.447,3.71 41.38,3.538 41.245,3.403C41.111,3.269 40.939,3.201 40.73,3.201L3.288,3.201C3.079,3.201 2.907,3.269 2.773,3.403C2.638,3.538 2.57,3.71 2.57,3.92L2.57,9.43C4.072,10.384 5.266,11.606 6.151,13.094C7.037,14.583 7.48,16.215 7.48,17.991C7.48,19.761 7.039,21.391 6.157,22.883C5.275,24.375 4.08,25.599 2.57,26.553L2.57,32.063C2.57,32.272 2.638,32.444 2.773,32.579C2.907,32.713 3.079,32.781 3.288,32.781ZM22.017,28.621C22.368,28.621 22.67,28.495 22.925,28.241C23.179,27.988 23.306,27.685 23.306,27.335C23.306,26.984 23.179,26.681 22.925,26.427C22.672,26.173 22.37,26.045 22.019,26.045C21.668,26.045 21.366,26.172 21.112,26.426C20.857,26.679 20.73,26.981 20.73,27.332C20.73,27.683 20.857,27.986 21.11,28.24C21.364,28.494 21.666,28.621 22.017,28.621ZM22.017,19.27C22.368,19.27 22.67,19.143 22.925,18.89C23.179,18.636 23.306,18.334 23.306,17.983C23.306,17.632 23.179,17.33 22.925,17.075C22.672,16.822 22.37,16.695 22.019,16.695C21.668,16.695 21.366,16.821 21.112,17.075C20.857,17.328 20.73,17.63 20.73,17.981C20.73,18.332 20.857,18.634 21.11,18.888C21.364,19.143 21.666,19.27 22.017,19.27ZM22.017,9.919C22.368,9.919 22.67,9.792 22.925,9.538C23.179,9.285 23.306,8.982 23.306,8.632C23.306,8.281 23.179,7.979 22.925,7.725C22.672,7.47 22.37,7.343 22.019,7.343C21.668,7.343 21.366,7.47 21.112,7.723C20.857,7.977 20.73,8.279 20.73,8.63C20.73,8.98 20.857,9.283 21.11,9.537C21.364,9.791 21.666,9.919 22.017,9.919Z" fill="#C1C1CB"/>
</svg>
