<svg width="46" height="30" viewBox="0 0 46 30" fill="none" xmlns="http://www.w3.org/2000/svg" xmlns:xlink="http://www.w3.org/1999/xlink">
<path d="M23.192,13.285C24.043,12.359 24.673,11.296 25.081,10.096C25.489,8.896 25.692,7.659 25.692,6.385C25.692,5.11 25.489,3.873 25.081,2.673C24.673,1.473 24.043,0.41 23.192,-0.515C24.949,-0.313 26.407,0.446 27.567,1.76C28.727,3.074 29.307,4.616 29.307,6.385C29.307,8.154 28.727,9.696 27.567,11.01C26.407,12.324 24.949,13.082 23.192,13.285ZM32.919,28.616C33.17,28.157 33.362,27.668 33.494,27.15C33.626,26.632 33.692,26.108 33.692,25.577L33.692,23.923C33.692,22.833 33.471,21.795 33.027,20.811C32.583,19.827 31.954,18.982 31.138,18.277C32.672,18.787 34.083,19.476 35.373,20.343C36.663,21.209 37.307,22.403 37.307,23.923L37.307,25.577C37.307,26.42 37.012,27.138 36.421,27.729C35.83,28.32 35.113,28.616 34.269,28.616L32.919,28.616ZM37.307,11.5L34.807,11.5C34.382,11.5 34.026,11.356 33.739,11.069C33.451,10.781 33.307,10.425 33.307,10C33.307,9.574 33.451,9.218 33.739,8.931C34.026,8.644 34.382,8.5 34.807,8.5L37.307,8.5L37.307,6C37.307,5.575 37.451,5.219 37.739,4.932C38.027,4.644 38.383,4.5 38.808,4.5C39.233,4.5 39.59,4.644 39.877,4.932C40.164,5.219 40.307,5.575 40.307,6L40.307,8.5L42.807,8.5C43.232,8.5 43.589,8.644 43.876,8.932C44.164,9.219 44.307,9.576 44.307,10.001C44.307,10.426 44.164,10.782 43.876,11.069C43.589,11.356 43.232,11.5 42.807,11.5L40.307,11.5L40.307,14C40.307,14.425 40.164,14.781 39.876,15.069C39.588,15.356 39.232,15.5 38.807,15.5C38.382,15.5 38.025,15.356 37.738,15.069C37.451,14.781 37.307,14.425 37.307,14L37.307,11.5ZM14.692,13.385C12.767,13.385 11.119,12.699 9.748,11.329C8.378,9.958 7.692,8.31 7.692,6.385C7.692,4.46 8.378,2.812 9.748,1.441C11.119,0.07 12.767,-0.615 14.692,-0.615C16.617,-0.615 18.265,0.07 19.636,1.441C21.007,2.812 21.692,4.46 21.692,6.385C21.692,8.31 21.007,9.958 19.636,11.329C18.265,12.699 16.617,13.385 14.692,13.385ZM-0.308,25.577L-0.308,24.169C-0.308,23.19 -0.042,22.283 0.49,21.448C1.022,20.613 1.733,19.972 2.623,19.523C4.6,18.554 6.594,17.827 8.606,17.343C10.617,16.858 12.646,16.616 14.692,16.616C16.738,16.616 18.767,16.858 20.779,17.343C22.79,17.827 24.784,18.554 26.761,19.523C27.651,19.972 28.362,20.613 28.894,21.448C29.426,22.283 29.692,23.19 29.692,24.169L29.692,25.577C29.692,26.42 29.397,27.138 28.806,27.729C28.215,28.32 27.498,28.616 26.654,28.616L2.731,28.616C1.887,28.616 1.17,28.32 0.579,27.729C-0.012,27.138 -0.308,26.42 -0.308,25.577ZM14.692,10.385C15.792,10.385 16.734,9.993 17.517,9.21C18.301,8.426 18.692,7.485 18.692,6.385C18.692,5.285 18.301,4.343 17.517,3.56C16.734,2.776 15.792,2.385 14.692,2.385C13.592,2.385 12.651,2.776 11.867,3.56C11.084,4.343 10.692,5.285 10.692,6.385C10.692,7.485 11.084,8.426 11.867,9.21C12.651,9.993 13.592,10.385 14.692,10.385ZM2.692,25.616L26.692,25.616L26.692,24.169C26.692,23.764 26.575,23.389 26.34,23.044C26.106,22.699 25.787,22.418 25.384,22.2C23.661,21.351 21.905,20.708 20.114,20.271C18.323,19.834 16.516,19.616 14.692,19.616C12.869,19.616 11.062,19.834 9.271,20.271C7.48,20.708 5.723,21.351 4,22.2C3.597,22.418 3.279,22.699 3.044,23.044C2.81,23.389 2.692,23.764 2.692,24.169L2.692,25.616Z" fill="#000000"/>
</svg>
