<svg width="46" height="44" viewBox="0 0 46 44" fill="none" xmlns="http://www.w3.org/2000/svg" xmlns:xlink="http://www.w3.org/1999/xlink">
<path d="M-0.167,43.09L-0.167,4.051C-0.167,2.873 0.242,1.875 1.058,1.058C1.875,0.242 2.873,-0.167 4.051,-0.167L39.948,-0.167C41.127,-0.167 42.125,0.242 42.942,1.058C43.758,1.875 44.167,2.873 44.167,4.051L44.167,30.615C44.167,31.794 43.758,32.792 42.942,33.608C42.125,34.425 41.127,34.833 39.948,34.833L8.09,34.833L-0.167,43.09ZM6.6,31.333L39.948,31.333C40.128,31.333 40.293,31.258 40.442,31.109C40.592,30.959 40.667,30.795 40.667,30.615L40.667,4.051C40.667,3.872 40.592,3.707 40.442,3.558C40.293,3.408 40.128,3.333 39.948,3.333L4.051,3.333C3.872,3.333 3.707,3.408 3.558,3.558C3.408,3.707 3.333,3.872 3.333,4.051L3.333,34.564L6.6,31.333Z" fill="#000000"/>
</svg>
