<svg width="26" height="48" viewBox="0 0 26 48" fill="none" xmlns="http://www.w3.org/2000/svg" xmlns:xlink="http://www.w3.org/1999/xlink">
<path d="M4.572,24L24.353,43.714C24.695,44.101 24.869,44.574 24.876,45.133C24.882,45.692 24.707,46.16 24.351,46.536C23.954,46.911 23.476,47.099 22.918,47.099C22.36,47.099 21.889,46.903 21.505,46.512L1.437,26.431C1.088,26.091 0.837,25.717 0.685,25.309C0.533,24.901 0.457,24.47 0.457,24.017C0.457,23.563 0.531,23.127 0.679,22.708C0.827,22.289 1.08,21.901 1.437,21.543L21.543,1.437C21.941,1.047 22.411,0.86 22.953,0.876C23.496,0.893 23.962,1.088 24.353,1.461C24.695,1.842 24.867,2.31 24.869,2.866C24.871,3.422 24.697,3.883 24.347,4.249L4.572,24Z" fill="#FFFFFF"/>
</svg>
