<svg width="32" height="8" viewBox="0 0 32 8" fill="none" xmlns="http://www.w3.org/2000/svg" xmlns:xlink="http://www.w3.org/1999/xlink">
<path d="M4,8C2.9,8 1.958,7.608 1.175,6.825C0.392,6.042 0,5.1 0,4C0,2.9 0.392,1.958 1.175,1.175C1.958,0.392 2.9,0 4,0C5.1,0 6.042,0.392 6.825,1.175C7.608,1.958 8,2.9 8,4C8,5.1 7.608,6.042 6.825,6.825C6.042,7.608 5.1,8 4,8ZM16,8C14.9,8 13.958,7.608 13.175,6.825C12.392,6.042 12,5.1 12,4C12,2.9 12.392,1.958 13.175,1.175C13.958,0.392 14.9,0 16,0C17.1,0 18.042,0.392 18.825,1.175C19.608,1.958 20,2.9 20,4C20,5.1 19.608,6.042 18.825,6.825C18.042,7.608 17.1,8 16,8ZM28,8C26.9,8 25.958,7.608 25.175,6.825C24.392,6.042 24,5.1 24,4C24,2.9 24.392,1.958 25.175,1.175C25.958,0.392 26.9,0 28,0C29.1,0 30.042,0.392 30.825,1.175C31.608,1.958 32,2.9 32,4C32,5.1 31.608,6.042 30.825,6.825C30.042,7.608 29.1,8 28,8Z" fill="#1B1A1D"/>
</svg>
