<svg width="30" height="38" viewBox="0 0 30 38" fill="none" xmlns="http://www.w3.org/2000/svg" xmlns:xlink="http://www.w3.org/1999/xlink">
<path d="M14,34.205C18.143,30.489 21.304,26.947 23.483,23.578C25.661,20.209 26.75,17.264 26.75,14.742C26.75,10.909 25.536,7.753 23.108,5.274C20.681,2.796 17.644,1.557 13.996,1.557C10.349,1.557 7.313,2.796 4.887,5.274C2.462,7.753 1.25,10.909 1.25,14.742C1.25,17.264 2.358,20.209 4.573,23.578C6.789,26.947 9.931,30.489 14,34.205ZM13.992,36.236C13.692,36.236 13.393,36.187 13.095,36.09C12.797,35.993 12.53,35.835 12.296,35.617C11.203,34.625 9.892,33.371 8.364,31.855C6.837,30.34 5.385,28.66 4.009,26.814C2.634,24.968 1.465,23.014 0.502,20.951C-0.461,18.889 -0.942,16.819 -0.942,14.742C-0.942,10.178 0.534,6.477 3.485,3.64C6.437,0.803 9.942,-0.616 14,-0.616C18.058,-0.616 21.562,0.803 24.514,3.64C27.466,6.477 28.942,10.178 28.942,14.742C28.942,16.819 28.462,18.889 27.503,20.951C26.543,23.014 25.376,24.963 24,26.799C22.624,28.635 21.176,30.313 19.655,31.831C18.134,33.35 16.823,34.605 15.723,35.597C15.493,35.815 15.224,35.976 14.915,36.08C14.606,36.184 14.298,36.236 13.992,36.236ZM14.011,17.549C14.896,17.549 15.653,17.236 16.283,16.61C16.914,15.984 17.229,15.228 17.229,14.343C17.229,13.459 16.911,12.702 16.275,12.072C15.639,11.442 14.878,11.126 13.991,11.126C13.105,11.126 12.352,11.444 11.733,12.08C11.115,12.716 10.806,13.478 10.806,14.364C10.806,15.251 11.119,16.003 11.745,16.621C12.372,17.24 13.127,17.549 14.011,17.549Z" fill="#000000"/>
</svg>
