<svg width="38" height="44" viewBox="0 0 38 44" fill="none" xmlns="http://www.w3.org/2000/svg" xmlns:xlink="http://www.w3.org/1999/xlink">
<path d="M31.003,43.125C29.348,43.125 27.941,42.546 26.782,41.387C25.622,40.229 25.042,38.822 25.042,37.167C25.042,36.896 25.063,36.616 25.106,36.327C25.15,36.037 25.214,35.769 25.3,35.525L9.275,26.142C8.703,26.711 8.052,27.156 7.321,27.477C6.591,27.798 5.817,27.958 5,27.958C3.345,27.958 1.938,27.379 0.779,26.221C-0.379,25.063 -0.958,23.657 -0.958,22.003C-0.958,20.348 -0.379,18.941 0.779,17.782C1.938,16.622 3.345,16.042 5,16.042C5.817,16.042 6.591,16.202 7.321,16.523C8.052,16.844 8.703,17.289 9.275,17.858L25.3,8.475C25.214,8.231 25.15,7.963 25.106,7.673C25.063,7.384 25.042,7.104 25.042,6.833C25.042,5.178 25.621,3.771 26.779,2.613C27.937,1.454 29.343,0.875 30.997,0.875C32.652,0.875 34.059,1.454 35.219,2.612C36.379,3.77 36.958,5.176 36.958,6.831C36.958,8.485 36.379,9.892 35.221,11.052C34.062,12.212 32.655,12.792 31,12.792C30.183,12.792 29.41,12.631 28.679,12.31C27.949,11.989 27.297,11.544 26.725,10.975L10.7,20.358C10.786,20.603 10.851,20.869 10.894,21.158C10.937,21.447 10.958,21.726 10.958,21.996C10.958,22.265 10.937,22.546 10.894,22.837C10.851,23.129 10.786,23.397 10.7,23.642L26.725,33.025C27.297,32.456 27.949,32.011 28.679,31.69C29.41,31.369 30.183,31.208 31,31.208C32.655,31.208 34.062,31.787 35.221,32.945C36.379,34.104 36.958,35.51 36.958,37.164C36.958,38.819 36.379,40.226 35.221,41.385C34.063,42.545 32.657,43.125 31.003,43.125Z" fill="#000000"/>
</svg>
