<svg width="34" height="38" viewBox="0 0 34 38" fill="none" xmlns="http://www.w3.org/2000/svg" xmlns:xlink="http://www.w3.org/1999/xlink">
<path d="M21.992,30.909C20.732,30.909 19.676,30.479 18.824,29.62C17.972,28.761 17.546,27.701 17.546,26.44C17.546,25.179 17.976,24.123 18.835,23.271C19.694,22.42 20.754,21.994 22.015,21.994C23.276,21.994 24.332,22.424 25.184,23.283C26.036,24.142 26.461,25.202 26.461,26.463C26.461,27.724 26.032,28.78 25.172,29.631C24.313,30.483 23.253,30.909 21.992,30.909ZM1.941,37.086C1.188,37.086 0.533,36.807 -0.025,36.249C-0.583,35.692 -0.862,35.036 -0.862,34.283L-0.862,5.435C-0.862,4.682 -0.583,4.027 -0.025,3.469C0.533,2.911 1.19,2.632 1.946,2.632L5.715,2.632L5.715,0.33C5.715,0.01 5.83,-0.27 6.06,-0.509C6.29,-0.748 6.573,-0.868 6.91,-0.868C7.261,-0.868 7.556,-0.748 7.797,-0.509C8.037,-0.27 8.157,0.01 8.157,0.33L8.157,2.632L23.919,2.632L23.919,0.297C23.919,-0.027 24.032,-0.302 24.258,-0.528C24.484,-0.754 24.761,-0.868 25.088,-0.868C25.43,-0.868 25.718,-0.753 25.952,-0.524C26.187,-0.295 26.304,-0.023 26.304,0.292L26.304,2.632L30.054,2.632C30.81,2.632 31.467,2.911 32.025,3.469C32.583,4.027 32.861,4.682 32.861,5.435L32.861,34.283C32.861,35.036 32.583,35.692 32.025,36.249C31.467,36.807 30.812,37.086 30.058,37.086L1.941,37.086ZM1.946,34.894L30.054,34.894C30.208,34.894 30.349,34.83 30.477,34.701C30.605,34.573 30.669,34.432 30.669,34.278L30.669,14.521L1.331,14.521L1.331,34.278C1.331,34.432 1.395,34.573 1.523,34.701C1.651,34.83 1.792,34.894 1.946,34.894ZM1.331,12.328L30.669,12.328L30.669,5.44C30.669,5.286 30.605,5.145 30.477,5.017C30.349,4.889 30.208,4.824 30.054,4.824L1.946,4.824C1.792,4.824 1.651,4.889 1.523,5.017C1.395,5.145 1.331,5.286 1.331,5.44L1.331,12.328Z" fill="#000000"/>
</svg>
