<svg width="8" height="32" viewBox="0 0 8 32" fill="none" xmlns="http://www.w3.org/2000/svg" xmlns:xlink="http://www.w3.org/1999/xlink">
<path d="M4,32C2.9,32 1.958,31.608 1.175,30.825C0.392,30.042 0,29.1 0,28C0,26.9 0.392,25.958 1.175,25.175C1.958,24.392 2.9,24 4,24C5.1,24 6.042,24.392 6.825,25.175C7.608,25.958 8,26.9 8,28C8,29.1 7.608,30.042 6.825,30.825C6.042,31.608 5.1,32 4,32ZM4,20C2.9,20 1.958,19.608 1.175,18.825C0.392,18.042 0,17.1 0,16C0,14.9 0.392,13.958 1.175,13.175C1.958,12.392 2.9,12 4,12C5.1,12 6.042,12.392 6.825,13.175C7.608,13.958 8,14.9 8,16C8,17.1 7.608,18.042 6.825,18.825C6.042,19.608 5.1,20 4,20ZM4,8C2.9,8 1.958,7.608 1.175,6.825C0.392,6.042 0,5.1 0,4C0,2.9 0.392,1.958 1.175,1.175C1.958,0.392 2.9,0 4,0C5.1,0 6.042,0.392 6.825,1.175C7.608,1.958 8,2.9 8,4C8,5.1 7.608,6.042 6.825,6.825C6.042,7.608 5.1,8 4,8Z" fill="#1B1A1D"/>
</svg>
