<svg width="34" height="46" viewBox="0 0 34 46" fill="none" xmlns="http://www.w3.org/2000/svg" xmlns:xlink="http://www.w3.org/1999/xlink">
<path d="M3.454,44.365C2.605,44.365 1.867,44.051 1.239,43.424C0.612,42.797 0.298,42.059 0.298,41.211L0.298,15.133C0.298,14.285 0.612,13.547 1.239,12.92C1.867,12.292 2.606,11.979 3.457,11.979L10.042,11.979C10.401,11.979 10.699,12.1 10.937,12.342C11.176,12.585 11.295,12.871 11.295,13.203C11.295,13.563 11.176,13.861 10.937,14.094C10.699,14.328 10.401,14.445 10.042,14.445L3.457,14.445C3.284,14.445 3.125,14.517 2.981,14.661C2.836,14.806 2.764,14.964 2.764,15.137L2.764,41.207C2.764,41.38 2.836,41.539 2.981,41.683C3.125,41.827 3.284,41.899 3.457,41.899L30.543,41.899C30.716,41.899 30.875,41.827 31.019,41.683C31.164,41.539 31.236,41.38 31.236,41.207L31.236,15.137C31.236,14.964 31.164,14.806 31.019,14.661C30.875,14.517 30.716,14.445 30.543,14.445L23.888,14.445C23.53,14.445 23.238,14.322 23.013,14.076C22.788,13.829 22.675,13.538 22.675,13.201C22.675,12.865 22.788,12.577 23.013,12.337C23.238,12.098 23.53,11.979 23.888,11.979L30.543,11.979C31.394,11.979 32.133,12.292 32.761,12.92C33.388,13.547 33.702,14.285 33.702,15.133L33.702,41.211C33.702,42.059 33.388,42.797 32.761,43.424C32.133,44.051 31.395,44.365 30.546,44.365L3.454,44.365ZM15.752,3.192L11.423,7.5C11.205,7.732 10.921,7.855 10.57,7.868C10.22,7.881 9.921,7.761 9.675,7.508C9.443,7.271 9.326,6.977 9.326,6.628C9.326,6.279 9.46,5.971 9.726,5.704L15.865,-0.469C16.166,-0.778 16.529,-0.933 16.952,-0.933C17.375,-0.933 17.757,-0.781 18.097,-0.477L24.275,5.737C24.515,5.979 24.636,6.273 24.637,6.617C24.639,6.962 24.523,7.251 24.29,7.483C24.027,7.729 23.727,7.853 23.387,7.853C23.047,7.853 22.757,7.72 22.515,7.454L18.218,3.192L18.218,26.967C18.218,27.325 18.098,27.617 17.857,27.842C17.617,28.068 17.316,28.18 16.955,28.18C16.594,28.18 16.303,28.068 16.083,27.842C15.862,27.617 15.752,27.325 15.752,26.967L15.752,3.192Z" fill="#FFFFFF"/>
</svg>
