<svg width="28" height="28" viewBox="0 0 28 28" fill="none" xmlns="http://www.w3.org/2000/svg" xmlns:xlink="http://www.w3.org/1999/xlink">
<path d="M14,16.283L3.009,27.275C2.708,27.575 2.331,27.728 1.877,27.736C1.423,27.743 1.039,27.589 0.725,27.275C0.411,26.961 0.254,26.58 0.254,26.133C0.254,25.686 0.411,25.306 0.725,24.992L11.717,14L0.725,3.009C0.425,2.708 0.272,2.331 0.264,1.877C0.258,1.423 0.411,1.039 0.725,0.725C1.039,0.411 1.42,0.254 1.867,0.254C2.314,0.254 2.694,0.411 3.009,0.725L14,11.717L24.992,0.725C25.292,0.425 25.669,0.272 26.123,0.264C26.577,0.258 26.961,0.411 27.275,0.725C27.589,1.039 27.746,1.42 27.746,1.867C27.746,2.314 27.589,2.694 27.275,3.009L16.283,14L27.275,24.992C27.575,25.292 27.728,25.669 27.736,26.123C27.743,26.577 27.589,26.961 27.275,27.275C26.961,27.589 26.58,27.746 26.133,27.746C25.686,27.746 25.306,27.589 24.992,27.275L14,16.283Z" fill="#000000"/>
</svg>
