<svg width="8" height="32" viewBox="0 0 8 32" fill="none" xmlns="http://www.w3.org/2000/svg" xmlns:xlink="http://www.w3.org/1999/xlink">
<path d="M4,31.75C3.106,31.75 2.341,31.432 1.705,30.795C1.068,30.159 0.75,29.394 0.75,28.5C0.75,27.606 1.068,26.841 1.705,26.205C2.341,25.568 3.106,25.25 4,25.25C4.894,25.25 5.659,25.568 6.295,26.205C6.932,26.841 7.25,27.606 7.25,28.5C7.25,29.394 6.932,30.159 6.295,30.795C5.659,31.432 4.894,31.75 4,31.75ZM4,19.25C3.106,19.25 2.341,18.932 1.705,18.295C1.068,17.659 0.75,16.894 0.75,16C0.75,15.106 1.068,14.341 1.705,13.705C2.341,13.068 3.106,12.75 4,12.75C4.894,12.75 5.659,13.068 6.295,13.705C6.932,14.341 7.25,15.106 7.25,16C7.25,16.894 6.932,17.659 6.295,18.295C5.659,18.932 4.894,19.25 4,19.25ZM4,6.75C3.106,6.75 2.341,6.432 1.705,5.796C1.068,5.159 0.75,4.394 0.75,3.5C0.75,2.606 1.068,1.841 1.705,1.205C2.341,0.568 3.106,0.25 4,0.25C4.894,0.25 5.659,0.568 6.295,1.205C6.932,1.841 7.25,2.606 7.25,3.5C7.25,4.394 6.932,5.159 6.295,5.796C5.659,6.432 4.894,6.75 4,6.75Z" fill="#000000"/>
</svg>
