<svg width="36" height="40" viewBox="0 0 36 40" fill="none" xmlns="http://www.w3.org/2000/svg" xmlns:xlink="http://www.w3.org/1999/xlink">
<path d="M7.051,39.833C5.891,39.833 4.898,39.42 4.072,38.594C3.246,37.768 2.833,36.775 2.833,35.615L2.833,6L2.25,6C1.754,6 1.339,5.832 1.003,5.497C0.668,5.161 0.5,4.745 0.5,4.249C0.5,3.753 0.668,3.338 1.003,3.003C1.339,2.668 1.754,2.5 2.25,2.5L11,2.5C11,1.929 11.201,1.442 11.604,1.039C12.006,0.637 12.493,0.436 13.064,0.436L22.936,0.436C23.507,0.436 23.994,0.637 24.396,1.039C24.799,1.442 25,1.929 25,2.5L33.75,2.5C34.246,2.5 34.661,2.668 34.997,3.003C35.332,3.339 35.5,3.755 35.5,4.251C35.5,4.747 35.332,5.162 34.997,5.497C34.661,5.832 34.246,6 33.75,6L33.167,6L33.167,35.615C33.167,36.775 32.754,37.768 31.928,38.594C31.102,39.42 30.109,39.833 28.949,39.833L7.051,39.833ZM29.667,6L6.333,6L6.333,35.615C6.333,35.825 6.401,35.997 6.535,36.132C6.67,36.266 6.842,36.333 7.051,36.333L28.949,36.333C29.158,36.333 29.33,36.266 29.465,36.132C29.599,35.997 29.667,35.825 29.667,35.615L29.667,6ZM13.693,31.667C14.189,31.667 14.605,31.499 14.94,31.164C15.275,30.828 15.442,30.413 15.442,29.917L15.442,12.417C15.442,11.921 15.274,11.505 14.939,11.17C14.603,10.834 14.188,10.667 13.691,10.667C13.196,10.667 12.78,10.834 12.445,11.17C12.11,11.505 11.943,11.921 11.943,12.417L11.943,29.917C11.943,30.413 12.11,30.828 12.445,31.164C12.781,31.499 13.197,31.667 13.693,31.667ZM22.308,31.667C22.804,31.667 23.22,31.499 23.555,31.164C23.89,30.828 24.057,30.413 24.057,29.917L24.057,12.417C24.057,11.921 23.89,11.505 23.554,11.17C23.219,10.834 22.803,10.667 22.307,10.667C21.811,10.667 21.395,10.834 21.06,11.17C20.725,11.505 20.558,11.921 20.558,12.417L20.558,29.917C20.558,30.413 20.726,30.828 21.061,31.164C21.397,31.499 21.812,31.667 22.308,31.667Z" fill="#000000"/>
</svg>
