<svg width="28" height="28" viewBox="0 0 28 28" fill="none" xmlns="http://www.w3.org/2000/svg" xmlns:xlink="http://www.w3.org/1999/xlink">
<path d="M12.133,16.4L9.267,13.533C9.022,13.289 8.711,13.167 8.333,13.167C7.956,13.167 7.645,13.289 7.4,13.533C7.156,13.778 7.033,14.089 7.033,14.467C7.033,14.845 7.156,15.156 7.4,15.4L11.2,19.2C11.467,19.467 11.778,19.6 12.133,19.6C12.489,19.6 12.8,19.467 13.067,19.2L20.6,11.667C20.845,11.422 20.967,11.111 20.967,10.733C20.967,10.356 20.845,10.045 20.6,9.8C20.356,9.556 20.045,9.433 19.667,9.433C19.289,9.433 18.978,9.556 18.733,9.8L12.133,16.4ZM14,27.333C12.156,27.333 10.422,26.983 8.8,26.283C7.178,25.583 5.767,24.633 4.567,23.433C3.367,22.233 2.417,20.822 1.717,19.2C1.017,17.578 0.667,15.845 0.667,14C0.667,12.156 1.017,10.422 1.717,8.8C2.417,7.178 3.367,5.767 4.567,4.567C5.767,3.367 7.178,2.417 8.8,1.717C10.422,1.017 12.156,0.667 14,0.667C15.845,0.667 17.578,1.017 19.2,1.717C20.822,2.417 22.233,3.367 23.433,4.567C24.633,5.767 25.583,7.178 26.283,8.8C26.983,10.422 27.333,12.156 27.333,14C27.333,15.845 26.983,17.578 26.283,19.2C25.583,20.822 24.633,22.233 23.433,23.433C22.233,24.633 20.822,25.583 19.2,26.283C17.578,26.983 15.845,27.333 14,27.333ZM14,24.667C16.978,24.667 19.5,23.633 21.567,21.567C23.633,19.5 24.667,16.978 24.667,14C24.667,11.022 23.633,8.5 21.567,6.433C19.5,4.367 16.978,3.333 14,3.333C11.022,3.333 8.5,4.367 6.433,6.433C4.367,8.5 3.333,11.022 3.333,14C3.333,16.978 4.367,19.5 6.433,21.567C8.5,23.633 11.022,24.667 14,24.667Z" fill="#1B8D5C"/>
</svg>
