<svg width="18" height="14" viewBox="0 0 18 14" fill="none" xmlns="http://www.w3.org/2000/svg" xmlns:xlink="http://www.w3.org/1999/xlink">
<path d="M13.38,6.875L0.125,6.875C-0.123,6.875 -0.331,6.791 -0.499,6.624C-0.666,6.456 -0.75,6.248 -0.75,6C-0.75,5.752 -0.666,5.544 -0.499,5.377C-0.331,5.209 -0.123,5.125 0.125,5.125L13.38,5.125L9.539,1.284C9.366,1.111 9.28,0.907 9.282,0.675C9.285,0.442 9.37,0.236 9.539,0.055C9.72,-0.126 9.928,-0.22 10.163,-0.226C10.398,-0.232 10.606,-0.144 10.787,0.037L16.012,5.262C16.121,5.371 16.198,5.486 16.243,5.608C16.288,5.729 16.31,5.86 16.31,6C16.31,6.141 16.288,6.272 16.243,6.393C16.198,6.514 16.121,6.629 16.012,6.738L10.787,11.964C10.613,12.137 10.407,12.223 10.169,12.221C9.93,12.218 9.72,12.127 9.539,11.946C9.37,11.765 9.283,11.56 9.277,11.331C9.271,11.102 9.358,10.897 9.539,10.716L13.38,6.875Z" fill="#000000"/>
</svg>
