<svg width="20" height="24" viewBox="0 0 20 24" fill="none" xmlns="http://www.w3.org/2000/svg" xmlns:xlink="http://www.w3.org/1999/xlink">
<path d="M13.141,19C12.391,19 11.755,18.739 11.233,18.216C10.71,17.693 10.449,17.057 10.449,16.308C10.449,15.558 10.71,14.922 11.233,14.4C11.755,13.877 12.391,13.616 13.141,13.616C13.89,13.616 14.526,13.877 15.049,14.4C15.572,14.922 15.833,15.558 15.833,16.308C15.833,17.057 15.572,17.693 15.049,18.216C14.526,18.739 13.89,19 13.141,19ZM2.192,23.083C1.603,23.083 1.104,22.879 0.696,22.471C0.287,22.062 0.083,21.564 0.083,20.974L0.083,5.359C0.083,4.77 0.287,4.271 0.696,3.863C1.104,3.454 1.603,3.25 2.192,3.25L3.808,3.25L3.808,1.679C3.808,1.424 3.893,1.21 4.065,1.039C4.236,0.868 4.449,0.782 4.705,0.782C4.961,0.782 5.174,0.868 5.346,1.039C5.517,1.21 5.602,1.424 5.602,1.679L5.602,3.25L14.442,3.25L14.442,1.657C14.442,1.409 14.526,1.201 14.693,1.033C14.861,0.866 15.069,0.782 15.317,0.782C15.566,0.782 15.773,0.866 15.941,1.033C16.108,1.201 16.192,1.409 16.192,1.657L16.192,3.25L17.808,3.25C18.397,3.25 18.896,3.454 19.304,3.863C19.712,4.271 19.917,4.77 19.917,5.359L19.917,20.974C19.917,21.564 19.712,22.062 19.304,22.471C18.896,22.879 18.397,23.083 17.808,23.083L2.192,23.083ZM2.192,21.333L17.808,21.333C17.897,21.333 17.98,21.296 18.054,21.221C18.129,21.146 18.167,21.064 18.167,20.974L18.167,10.026L1.833,10.026L1.833,20.974C1.833,21.064 1.871,21.146 1.946,21.221C2.02,21.296 2.102,21.333 2.192,21.333Z" fill="#000000"/>
</svg>
