<svg width="32" height="28" viewBox="0 0 32 28" fill="none" xmlns="http://www.w3.org/2000/svg" xmlns:xlink="http://www.w3.org/1999/xlink">
<path d="M15.984,26.849C15.627,26.849 15.269,26.785 14.909,26.657C14.549,26.529 14.232,26.328 13.958,26.055L11.564,23.878C8.609,21.184 5.971,18.537 3.649,15.938C1.328,13.338 0.167,10.553 0.167,7.583C0.167,5.218 0.964,3.238 2.559,1.642C4.154,0.048 6.135,-0.75 8.5,-0.75C9.844,-0.75 11.171,-0.44 12.483,0.18C13.793,0.799 14.966,1.806 16,3.199C17.034,1.806 18.207,0.799 19.518,0.18C20.829,-0.44 22.156,-0.75 23.5,-0.75C25.865,-0.75 27.845,0.048 29.441,1.642C31.036,3.238 31.833,5.218 31.833,7.583C31.833,10.586 30.653,13.401 28.292,16.03C25.93,18.66 23.298,21.284 20.394,23.904L18.025,26.055C17.752,26.328 17.433,26.529 17.068,26.657C16.702,26.785 16.341,26.849 15.984,26.849Z" fill="#000000"/>
</svg>
