<svg width="32" height="22" viewBox="0 0 32 22" fill="none" xmlns="http://www.w3.org/2000/svg" xmlns:xlink="http://www.w3.org/1999/xlink">
<path d="M25.188,8.125L21.812,8.125C21.494,8.125 21.227,8.017 21.011,7.801C20.795,7.586 20.688,7.318 20.688,7C20.688,6.681 20.795,6.413 21.011,6.198C21.227,5.983 21.494,5.875 21.812,5.875L25.188,5.875L25.188,2.5C25.188,2.181 25.295,1.914 25.511,1.699C25.727,1.483 25.994,1.375 26.313,1.375C26.632,1.375 26.899,1.483 27.114,1.699C27.33,1.914 27.438,2.181 27.438,2.5L27.438,5.875L30.813,5.875C31.131,5.875 31.398,5.983 31.614,6.199C31.83,6.414 31.938,6.682 31.938,7C31.938,7.319 31.83,7.586 31.614,7.802C31.398,8.017 31.131,8.125 30.813,8.125L27.438,8.125L27.438,11.5C27.438,11.819 27.33,12.086 27.114,12.301C26.898,12.517 26.631,12.625 26.312,12.625C25.993,12.625 25.726,12.517 25.511,12.301C25.295,12.086 25.188,11.819 25.188,11.5L25.188,8.125ZM11.5,9.538C10.056,9.538 8.82,9.024 7.792,7.996C6.764,6.968 6.25,5.732 6.25,4.288C6.25,2.845 6.764,1.609 7.792,0.581C8.82,-0.448 10.056,-0.962 11.5,-0.962C12.944,-0.962 14.18,-0.448 15.208,0.581C16.236,1.609 16.75,2.845 16.75,4.288C16.75,5.732 16.236,6.968 15.208,7.996C14.18,9.024 12.944,9.538 11.5,9.538ZM0.25,18.683L0.25,17.627C0.25,16.892 0.449,16.212 0.848,15.586C1.247,14.96 1.781,14.479 2.448,14.142C3.931,13.415 5.426,12.87 6.935,12.507C8.444,12.143 9.966,11.962 11.5,11.962C13.034,11.962 14.556,12.143 16.065,12.507C17.574,12.87 19.069,13.415 20.552,14.142C21.219,14.479 21.753,14.96 22.152,15.586C22.551,16.212 22.75,16.892 22.75,17.627L22.75,18.683C22.75,19.315 22.528,19.853 22.085,20.297C21.642,20.74 21.104,20.962 20.471,20.962L2.529,20.962C1.896,20.962 1.358,20.74 0.915,20.297C0.472,19.853 0.25,19.315 0.25,18.683ZM2.5,18.712L20.5,18.712L20.5,17.627C20.5,17.323 20.412,17.042 20.236,16.783C20.06,16.524 19.821,16.313 19.519,16.15C18.227,15.513 16.909,15.031 15.566,14.703C14.223,14.375 12.867,14.212 11.5,14.212C10.133,14.212 8.777,14.375 7.434,14.703C6.091,15.031 4.773,15.513 3.481,16.15C3.179,16.313 2.94,16.524 2.764,16.783C2.588,17.042 2.5,17.323 2.5,17.627L2.5,18.712ZM11.5,7.288C12.325,7.288 13.031,6.995 13.619,6.407C14.206,5.82 14.5,5.113 14.5,4.288C14.5,3.463 14.206,2.757 13.619,2.17C13.031,1.582 12.325,1.288 11.5,1.288C10.675,1.288 9.969,1.582 9.381,2.17C8.794,2.757 8.5,3.463 8.5,4.288C8.5,5.113 8.794,5.82 9.381,6.407C9.969,6.995 10.675,7.288 11.5,7.288Z" fill="#000000"/>
</svg>
